<?xml version="1.0" encoding="utf-8"?>
<!-- Generator: Adobe Illustrator 24.0.2, SVG Export Plug-In . SVG Version: 6.00 Build 0)  -->
<svg version="1.1" id="Layer_1" xmlns="http://www.w3.org/2000/svg" xmlns:xlink="http://www.w3.org/1999/xlink" x="0px" y="0px"
	 viewBox="0 0 446.3 567.9" style="enable-background:new 0 0 446.3 567.9;" xml:space="preserve">
<style type="text/css">
	.st0{fill:none;stroke:#A0A0A0;stroke-width:0.52;stroke-linecap:round;stroke-linejoin:round;}
</style>
<g>
	<g transform="translate(0 -3875)">
		<path class="st0" d="M-81.3,4328.2l243.6-74.1l305.6-379.6 M-79.8,4229.3l33.5,3.4l35.1,3.5l70.8,7.1h0.2l1.3,0.1l36.7,3.7
			l37.2,3.7l83.4,8.4l252.9,25.5 M-77.1,4270l33.5,3.4l35.1,3.5l70.8,7.1h0.2l1.3,0.1l36.7,3.7l37.2,3.7l83.4,8.4l286.2,28.3
			 M-158.9,4115.4l129.6,13.1l35.1,3.6l72.3,7.3l36.7,3.7l37.2,3.8l83.4,8.5l6,0.6h0.2l281.3,29 M-67.8,3896.5l86.4,8.8l29.2,3
			l5.9,0.6l5.9,0.6l59.9,6.1l6.4,0.7l36.7,3.7l37.2,3.8l83.4,8.5l163.1,16.4 M-97,3929.7l86.4,8.8l29.2,3l5.9,0.6l5.9,0.6l59.9,6.1
			l6.4,0.7l36.7,3.7l37.2,3.8l83.4,8.5l255.9,25.7 M-94.7,3976.1l79.7,8l35.1,3.5l72.3,7.2l36.7,3.7l37.2,3.7l83.4,8.4l273.2,27.6
			 M-88.6,4050.4l66.4,6.7l35.1,3.6l72.3,7.3l36.7,3.7l36.7,3.7l0.5,0.1l54.4,5.5l69.9,7.1l11.7,1.2l227.8,23.7 M-87.3,4086.1
			l61.6,6.2l35.1,3.6l72.3,7.3l36.7,3.7l31.1,3.2l6.1,0.6l5.7,0.6l77.7,7.9l29.6,3h0.1l244.5,24.5 M104,3875l-67.1,685.4
			 M395,3780.6l-42,422.8l-39.4,397.7 M427.6,3855.5l-67,675.6 M355.4,3780.5l-76.2,776.7 M233.1,3774.9l-84.5,858.6 M314.7,3787.6
			L236.3,4575 M270,3803.7l-75.4,766.1 M150,3813.3l-76.5,778.4 M190.6,3800.3l-74.3,756.9"/>
	</g>
</g>
</svg>
