<svg xmlns="http://www.w3.org/2000/svg" viewBox="0 0 283.31 427.84"><defs><style>.cls-1{fill:none;stroke:#b0b0af;stroke-linecap:round;stroke-linejoin:round;stroke-width:0.52px;}</style></defs><title>Asset 6</title><g id="Layer_2" data-name="Layer 2"><g id="Layer_1-2" data-name="Layer 1"><path class="cls-1" d="M8.06,275.64l121.22-36.87L281.4,49.84M8.79,226.44l16.69,1.68,17.45,1.75,35.26,3.55h.07l.64.06,18.26,1.84,18.51,1.86,41.52,4.18L283.05,254m-272.9-7.37,16.69,1.68,17.46,1.76,35.25,3.54h.08l.64.07,18.25,1.83L117,257.42l41.53,4.18,98.65,9.76M6.3,173.46l27.64,2.8L51.4,178l36,3.65,18.25,1.85,18.51,1.88,41.52,4.21,3,.3h.09l94.06,9.71M14.77,60.81l43,4.4,14.52,1.48,2.94.29h0l3,.31,29.81,3,3.21.32,18.24,1.86L148,74.37l41.52,4.21,81.17,8.14M.26,77.32l43,4.4L57.78,83.2l2.94.29h0l3,.31,29.81,3,3.21.32L114.93,89l18.52,1.88L175,95.09l81.17,8.14M1.38,100.44l39.65,4,17.45,1.75,36,3.61,18.26,1.83,18.51,1.85,41.53,4.16L265,126.9M4.41,137.39l33,3.35,17.45,1.77,36,3.65L109.12,148l18.24,1.85.27,0h0l27.09,2.74,40.64,4.13,67.1,7M5.07,155.17l30.65,3.11,17.45,1.77,36,3.65,18.25,1.85,15.47,1.57,3,.31,2.86.29,38.67,3.92,14.73,1.49h.05l75.66,7.56M100.29,50.1,66.9,391.21M245.12,3.09,204.59,411.47M261.32,40.41,228,376.66M225.37,3.09,187.44,389.65M164.55.26,122.5,427.58m82.64-421-39,391.87M182.88,14.63,145.36,395.89M123.18,19.38,85.09,406.8M143.38,12.94l-37,376.71"/></g></g></svg>