<svg xmlns="http://www.w3.org/2000/svg" viewBox="0 0 74.93 160.95"><defs><style>.cls-1{fill:#231f20;}</style></defs><title>Asset 3</title><g id="Layer_2" data-name="Layer 2"><g id="Layer_1-2" data-name="Layer 1"><path class="cls-1" d="M2.3,16.8V2.33H0V0H7.18V2.33H4.87V16.8Z"/><path class="cls-1" d="M13.85,7.32V0h1.92V16.8H13.85V9.12H10.73V16.8H8.81V0h1.92V7.32Z"/><path class="cls-1" d="M24,0V3H21.12V6.77h2.76v3H21.12v4h2.93v3H17.76V0Z"/><path class="cls-1" d="M8.28,40.8H5.74L5.4,38.16H2.74L2.42,40.8H.05L2.45,24H5.86ZM3,35.88H5.11l-1.05-8.5Z"/><path class="cls-1" d="M12.36,40.85,9.58,24H11l2.09,14,2.16-14h1.39L13.9,40.85Z"/><path class="cls-1" d="M24.19,24v2.33H21.05v4.75h3v2.33h-3v5.06h3.19V40.8H18.48V24Z"/><path class="cls-1" d="M28.06,27.65V40.8H26.23V24h2.64l2.79,12.12V24h1.82V40.8h-2.4Z"/><path class="cls-1" d="M42.6,37.83c0,2.08-1,3.12-3.12,3.12h-.6c-2.09,0-3.12-1-3.12-3.12V24h1.92V37.92A1.11,1.11,0,0,0,39,39.19h.46a1.11,1.11,0,0,0,1.27-1.27V24H42.6Z"/><path class="cls-1" d="M50.81,24v3H47.93v3.77h2.76v3H47.93v4h2.93v3H44.57V24Z"/><path class="cls-1" d="M2.62,64.8H.7V48H2.62Z"/><path class="cls-1" d="M12.07,59.09v2.74C12.07,63.91,11,65,9,65H7.82c-2.08,0-3.09-1-3.09-3.1V58.3H7.22v3.45c0,.65.32,1,1,1h.33c.68,0,1-.31,1-1v-2.3a1.48,1.48,0,0,0-.72-1.37l-2.59-1.9a3.06,3.06,0,0,1-1.49-2.9V51c0-2.09,1-3.12,3.12-3.12H8.93Q12,47.86,12,51v3H9.5v-3a.84.84,0,0,0-1-1H8.23a.84.84,0,0,0-1,1v1.87A1.46,1.46,0,0,0,8,54.29l2.59,1.89A3.07,3.07,0,0,1,12.07,59.09Z"/><path class="cls-1" d="M18.82,64.8,16.2,53.5l0,3V64.8h-2.3V48h3l2.4,10.37,0-2.81V48h2.3V64.8Z"/><path class="cls-1" d="M26.42,50.59a4.48,4.48,0,0,1-1.24,3.55l-.63.85-1.27-.37.34-.69a6.63,6.63,0,0,0,.84-2.23H23.3V48h3.12Z"/><path class="cls-1" d="M30.05,64.8v-15H27.53V48h7v1.78H32v15Z"/><path class="cls-1" d="M43.27,61.68c0,2.09-1,3.12-3.12,3.12H39V63H40a1.16,1.16,0,0,0,1.32-1.32V48h1.92Z"/><path class="cls-1" d="M52.34,61.83c0,2.08-1,3.12-3.12,3.12h-.6q-3.12,0-3.12-3.12V48h1.92V61.92a1.11,1.11,0,0,0,1.28,1.27h.45a1.1,1.1,0,0,0,1.27-1.27V48h1.92Z"/><path class="cls-1" d="M61.25,59.38v2.45q0,3.12-3.12,3.12H57.6c-2.06,0-3.07-1-3.07-3.08V58.34H56.4V62a1.11,1.11,0,0,0,1.27,1.27h.38A1.12,1.12,0,0,0,59.33,62V59.43a1.72,1.72,0,0,0-.84-1.61l-2.36-1.71A3.34,3.34,0,0,1,54.53,53V51c0-2.09,1-3.12,3.12-3.12h.48c2.06,0,3.07,1,3.07,3.07v3H59.33V50.86a1.12,1.12,0,0,0-1.28-1.28h-.33a1.11,1.11,0,0,0-1.27,1.28V53a1.74,1.74,0,0,0,.86,1.61l2.33,1.68A3.32,3.32,0,0,1,61.25,59.38Z"/><path class="cls-1" d="M65.13,64.8V50.33h-2.3V48H70v2.33H67.7V64.8Z"/><path class="cls-1" d="M5.83,72v1.78H2.59v5.61H5.71v1.76H2.59V88.8H.67V72Z"/><path class="cls-1" d="M12.14,89H10.78c-2.09,0-3.12-1-3.12-3.12V75c0-2.09,1-3.12,3.12-3.12h1.36c2.09,0,3.12,1,3.12,3.12V85.83C15.26,87.91,14.23,89,12.14,89Zm-.4-14.84h-.53a.86.86,0,0,0-1,1V85.71a.86.86,0,0,0,1,1h.53a.85.85,0,0,0,1-1V75.1C12.7,74.42,12.38,74.11,11.74,74.11Z"/><path class="cls-1" d="M25.22,83V88.8H21.86V83a.52.52,0,0,0-.6-.6h-.84V88.8H17.06V72h5c2.09,0,3.12,1,3.12,3.12v3.24c0,1.44-.53,2.16-1.44,2.5A1.9,1.9,0,0,1,25.22,83Zm-4-8.09h-.82v4.65h.82c.41,0,.6-.19.6-.59V75.53A.52.52,0,0,0,21.24,74.93Z"/><path class="cls-1" d="M34.29,89h-.71c-2.09,0-3.12-1-3.12-3.12V75c0-2.09,1-3.12,3.12-3.12h.71c2.09,0,3.13,1,3.13,3.12V85.83Q37.42,88.95,34.29,89Zm-.07-15.34h-.57a1.11,1.11,0,0,0-1.27,1.27v11a1.1,1.1,0,0,0,1.27,1.27h.57a1.11,1.11,0,0,0,1.28-1.27v-11A1.12,1.12,0,0,0,34.22,73.61Z"/><path class="cls-1" d="M44.42,88.8,41.81,77.5l0,3V88.8h-2.3V72h3l2.4,10.37,0-2.81V72h2.31V88.8Z"/><path class="cls-1" d="M54.94,72v2.33H51.79v4.75h3v2.33h-3v5.06H55V88.8H49.22V72Z"/><path class="cls-1" d="M2.52,112.8v-15H0V96H7v1.78H4.44v15Z"/><path class="cls-1" d="M13.13,106.83v6H10.56v-5.71L7.8,96h2.64l1.44,7.15L13.42,96h2.47Z"/><path class="cls-1" d="M19.27,112.8H17.35V96h3.31c2.09,0,3.12,1,3.12,3.12v4.25c0,2.09-1,3.12-3.12,3.12H19.27Zm1.32-15H19.27v7h1.32a1.11,1.11,0,0,0,1.27-1.28V99A1.11,1.11,0,0,0,20.59,97.75Z"/><path class="cls-1" d="M31.39,96v2.33H28.25v4.75h3v2.33h-3v5.06h3.19v2.33H25.68V96Z"/><path class="cls-1" d="M40.75,113H40c-2.09,0-3.12-1-3.12-3.12V99c0-2.09,1-3.12,3.12-3.12h.72c2.09,0,3.12,1,3.12,3.12v10.85C43.87,111.91,42.84,113,40.75,113Zm-.07-15.34H40.1a1.11,1.11,0,0,0-1.27,1.27v11a1.11,1.11,0,0,0,1.27,1.27h.58A1.11,1.11,0,0,0,42,109.92v-11A1.11,1.11,0,0,0,40.68,97.61Z"/><path class="cls-1" d="M51.58,96v2.33h-3v4.85h2.91v2.32H48.55v7.3H46V96Z"/><path class="cls-1" d="M.53,120H4.39c2.5,0,3.67,1.2,3.67,3.67v9.46c0,2.47-1.17,3.67-3.67,3.67H.53ZM3.1,134.55H4c1,0,1.47-.48,1.47-1.49v-9.32A1.29,1.29,0,0,0,4,122.26H3.1Z"/><path class="cls-1" d="M12.62,136.8H10.06V120h2.56Z"/><path class="cls-1" d="M19.56,136.8l-2.62-11.3,0,2.95v8.35H14.66V120h3l2.4,10.37,0-2.81V120h2.3v16.8Z"/><path class="cls-1" d="M29.76,120v1.34H26.13v6.22h3.51v1.35H26.13v6.55h3.68v1.34H24.7V120Z"/><path class="cls-1" d="M38.74,131.14v5.66H36.82v-5.59c0-1-.46-1.46-1.47-1.46H33.93v7.05H32V120h3.58c2.09,0,3.12,1,3.12,3.12v3.12c0,1.51-.53,2.26-1.49,2.64C38.28,129.17,38.74,129.84,38.74,131.14Zm-3.22-9.39H33.93V128h1.45a1.24,1.24,0,0,0,1.41-1.42V123A1.11,1.11,0,0,0,35.52,121.75Z"/><path class="cls-1" d="M49.22,136.8,49,134.35H46.85l-.24,2.45h-3L45.77,120h4.58l2.21,16.8Zm-2.06-5.37h1.49l-.75-7.33Z"/><path class="cls-1" d="M58.82,136.8l-2.61-11.3,0,2.95v8.35h-2.3V120h3l2.4,10.37,0-2.81V120h2.31v16.8Z"/><path class="cls-1" d="M67.7,130.92v5.88H65.78v-5.73L63.07,120h2l1.7,8.23L68.52,120h1.9Z"/><path class="cls-1" d="M74.93,129.22V131H70.75v-1.73Z"/><path class="cls-1" d="M2.16,146.52l.07,10.92v3.36H.86V144H3l2.76,14.26L8.5,144h2.08v16.8H9.17v-3.41l.05-10.87L6.41,160.8H5Z"/><path class="cls-1" d="M18,161H15.84c-2.09,0-3.12-1-3.12-3.12V147c0-2.09,1-3.12,3.12-3.12H18c2.09,0,3.12,1,3.12,3.12v10.85C21.12,159.91,20.09,161,18,161Zm-.84-14.21h-.48a.52.52,0,0,0-.6.6v10.13a.53.53,0,0,0,.6.6h.48a.53.53,0,0,0,.6-.6V147.34A.52.52,0,0,0,17.16,146.74Z"/><path class="cls-1" d="M29.57,155.16v5.64H28.13v-5.59c0-1.2-.58-1.75-1.8-1.75H24.7v7.34H23.26V144h3.33c2,0,2.95,1,2.95,2.93v3.21c0,1.57-.6,2.28-1.58,2.65A2.1,2.1,0,0,1,29.57,155.16Zm-3-9.82H24.7v6.8h1.65a1.53,1.53,0,0,0,1.75-1.73v-3.55C28.1,145.82,27.6,145.34,26.54,145.34Z"/><path class="cls-1" d="M37.61,144v2.33H34.46v4.75h3v2.33h-3v5.06h3.2v2.33H31.89V144Z"/><path class="cls-1" d="M42.29,160.8H39.17v-3.69h3.12Z"/></g></g></svg>