<svg xmlns="http://www.w3.org/2000/svg" viewBox="0 0 214.03 481.04"><defs><style>.cls-1{fill:#231f20;}</style></defs><title>Asset 3</title><g id="Layer_2" data-name="Layer 2"><g id="Layer_1-2" data-name="Layer 1"><path class="cls-1" d="M3.08,24.71H.28V.21H5.11c3.05,0,4.55,1.5,4.55,4.55V11c0,3-1.5,4.55-4.55,4.55h-2ZM5,2.77H3.08V13H5A1.62,1.62,0,0,0,6.86,11.1V4.62A1.62,1.62,0,0,0,5,2.77Z"/><path class="cls-1" d="M19.39,24.71l-.6-4.09H14.28l-.56,4.09H11L14.8.14h3.58l3.78,24.57ZM14.63,18.1h3.81L16.52,4.52Z"/><path class="cls-1" d="M35.18,16.38v4c0,3.05-1.51,4.55-4.56,4.55H29c-3.05,0-4.52-1.5-4.52-4.51V15.23H28.1v5c0,.94.46,1.4,1.44,1.4H30c1,0,1.43-.46,1.43-1.4V16.91a2.16,2.16,0,0,0-1-2l-3.79-2.76a4.51,4.51,0,0,1-2.17-4.24V4.55C24.46,1.5,26,0,29,0h1.58c3,0,4.52,1.5,4.52,4.52V9H31.43V4.66A1.23,1.23,0,0,0,30,3.26h-.45a1.23,1.23,0,0,0-1.41,1.4V7.39a2.12,2.12,0,0,0,1,2L33,12.15A4.46,4.46,0,0,1,35.18,16.38Z"/><path class="cls-1" d="M47.53,17v3.71c0,2.8-1.44,4.23-4.31,4.23h-.76c-2.84,0-4.28-1.43-4.28-4.2v-5h2.07v5.11c0,1.47.77,2.17,2.27,2.17h.64c1.5,0,2.27-.7,2.27-2.17V17.05a3,3,0,0,0-1.4-2.7l-3.61-2.69a4.75,4.75,0,0,1-2.2-4.38v-3c0-2.8,1.4-4.24,4.3-4.24h.67C46,0,47.46,1.44,47.46,4.2V8.51H45.4V4.13C45.4,2.66,44.66,2,43.12,2h-.53c-1.54,0-2.27.7-2.27,2.17V7.25a3,3,0,0,0,1.4,2.69l3.61,2.66A4.73,4.73,0,0,1,47.53,17Z"/><path class="cls-1" d="M57.51,16v8.71H53.76V16.38L49.73.21h3.85l2.11,10.43L57.93.21h3.6Z"/><path class="cls-1" d="M73.61,20.37c0,3.05-1.51,4.55-4.56,4.55h-.87c-3.05,0-4.55-1.5-4.55-4.55V.21h2.8v20.3a1.62,1.62,0,0,0,1.85,1.86H69a1.62,1.62,0,0,0,1.85-1.86V.21h2.81Z"/><path class="cls-1" d="M83.86,24.71,80,8.23l0,4.3V24.71H76.72V.21h4.37L84.6,15.33l0-4.09V.21h3.36v24.5Z"/><path class="cls-1" d="M98.46,24.71l-4.59-12v12h-2.8V.21h2.8V12.08L98.7.21h3l-5.05,12,4.91,12.46Z"/><path class="cls-1" d="M120.44,24.71h-3.71l-.49-3.85h-3.89l-.45,3.85h-3.47L111.93.17h5Zm-7.67-7.17h3L114.28,5.15Z"/><path class="cls-1" d="M124.56,24.75,121,.21h3.78l2.2,18.27L129.22.21h3.57l-3.64,24.54Z"/><path class="cls-1" d="M143.29.21V3.6H138.7v6.94h4.42v3.39H138.7v7.39h4.66v3.39H135V.21Z"/><path class="cls-1" d="M148.92,5.53V24.71h-2.66V.21h3.86l4.06,17.68V.21h2.66v24.5h-3.5Z"/><path class="cls-1" d="M170.87,20.37c0,3.05-1.5,4.55-4.55,4.55H164.5c-3.05,0-4.55-1.5-4.55-4.55V.21h3.74v20a1.25,1.25,0,0,0,1.44,1.43h.59c.95,0,1.4-.45,1.4-1.43V.21h3.75Z"/><path class="cls-1" d="M181.69.21V2.8h-4.9v8.12h4.72v2.56h-4.72v8.64h5v2.59H174V.21Z"/><path class="cls-1" d="M.28,38.22H4.9c3.68,0,5.43,1.75,5.43,5.43V57.3c0,3.67-1.75,5.42-5.43,5.42H.28Zm2.8,22H4.76c1.89,0,2.77-1,2.77-2.84V43.61c0-1.89-.88-2.83-2.77-2.83H3.08Z"/><path class="cls-1" d="M21.74,38.22v3.4H17.15v6.93h4.41v3.39H17.15v7.39H21.8v3.39H13.4V38.22Z"/><path class="cls-1" d="M32.24,38.22v2.59H27.51V49h4.55v2.56H27.51V62.72h-2.8V38.22Z"/><path class="cls-1" d="M37.59,62.72h-2.1V38.22h2.1Z"/><path class="cls-1" d="M49,38.22v2.59h-4.9v8.12h4.72v2.56H44.07v8.64h5v2.59H41.26V38.22Z"/><path class="cls-1" d="M61.71,54.81v3.57c0,3-1.51,4.55-4.55,4.55h-.77c-3,0-4.48-1.5-4.48-4.48V53.31h2.72v5.25a1.62,1.62,0,0,0,1.86,1.85h.56a1.62,1.62,0,0,0,1.86-1.85V54.88a2.49,2.49,0,0,0-1.23-2.34l-3.43-2.49a4.85,4.85,0,0,1-2.34-4.55V42.56c0-3,1.5-4.55,4.55-4.55h.7c3,0,4.48,1.51,4.48,4.48V46.9H58.91V42.39a1.63,1.63,0,0,0-1.86-1.86h-.49a1.62,1.62,0,0,0-1.85,1.86v3.08A2.52,2.52,0,0,0,56,47.81l3.4,2.45A4.83,4.83,0,0,1,61.71,54.81Z"/><path class="cls-1" d="M80.5,52.68v5.7c0,3-1.5,4.55-4.55,4.55H74.09c-3,0-4.55-1.5-4.55-4.55V42.56c0-3,1.51-4.55,4.55-4.55h1.83c3,0,4.51,1.47,4.51,4.52v5H76.75V42.74c0-1-.45-1.44-1.4-1.44h-.63a1.25,1.25,0,0,0-1.43,1.44V58.21a1.25,1.25,0,0,0,1.43,1.43h.7c1,0,1.41-.45,1.41-1.43V52.68Z"/><path class="cls-1" d="M86.34,62.72h-2.8V38.22h2.8Z"/><path class="cls-1" d="M92.43,62.72V40.81H88.76V38.22H98.91v2.59H95.24V62.72Z"/><path class="cls-1" d="M107.91,54v8.71h-3.75V54.39l-4-16.17H104l2.1,10.43,2.24-10.43h3.6Z"/><path class="cls-1" d="M128.73,54.46v8.26h-2.8V54.57c0-1.47-.66-2.14-2.14-2.14h-2.06V62.72h-2.8V38.22h5.22c3,0,4.55,1.51,4.55,4.55v4.55c0,2.21-.77,3.29-2.17,3.85C128.07,51.59,128.73,52.57,128.73,54.46ZM124,40.78h-2.31V50h2.1a1.81,1.81,0,0,0,2.07-2.07V42.63A1.62,1.62,0,0,0,124,40.78Z"/><path class="cls-1" d="M142.73,58.38c0,3-1.5,4.55-4.55,4.55h-1.82c-3.05,0-4.55-1.5-4.55-4.55V38.22h3.74v20A1.25,1.25,0,0,0,137,59.64h.59c.95,0,1.41-.45,1.41-1.43v-20h3.74Z"/><path class="cls-1" d="M148.22,38.22V60.76h5v2h-7.11V38.22Z"/><path class="cls-1" d="M164.12,38.22v3.4h-4.59v6.93h4.41v3.39h-4.41v7.39h4.66v3.39h-8.4V38.22Z"/><path class="cls-1" d="M176.79,54.81v3.57c0,3-1.51,4.55-4.55,4.55h-.77c-3,0-4.48-1.5-4.48-4.48V53.31h2.72v5.25a1.62,1.62,0,0,0,1.86,1.85h.56A1.62,1.62,0,0,0,174,58.56V54.88a2.49,2.49,0,0,0-1.23-2.34l-3.43-2.49A4.85,4.85,0,0,1,167,45.5V42.56c0-3,1.5-4.55,4.55-4.55h.7c3,0,4.48,1.51,4.48,4.48V46.9H174V42.39a1.63,1.63,0,0,0-1.86-1.86h-.49a1.62,1.62,0,0,0-1.85,1.86v3.08A2.52,2.52,0,0,0,171,47.81l3.4,2.45A4.83,4.83,0,0,1,176.79,54.81Z"/><path class="cls-1" d="M194.39,54.08v4.37c0,2.84-1.43,4.27-4.3,4.27h-4.94V38.22H190c2.9,0,4.3,1.44,4.3,4.27v3.89c0,2.2-.84,3.32-2.27,3.81C193.52,50.72,194.39,51.87,194.39,54.08ZM190,40.15h-2.76v9.13h2.41c1.75,0,2.63-.84,2.63-2.52V42.39A2,2,0,0,0,190,40.15ZM187.22,60.8h2.83a2,2,0,0,0,2.28-2.24V53.73a2.3,2.3,0,0,0-2.63-2.56h-2.48Z"/><path class="cls-1" d="M203.59,54.15v8.57h-2.8V54.36l-3.95-16.14h2.87l2.49,12,2.59-12h2.76Z"/><path class="cls-1" d="M10,92.82v3.57c0,3-1.51,4.55-4.56,4.55H4.66c-3,0-4.49-1.5-4.49-4.48V91.32H2.9v5.25a1.62,1.62,0,0,0,1.86,1.85h.56a1.61,1.61,0,0,0,1.85-1.85V92.89A2.5,2.5,0,0,0,6,90.55L2.52,88.06A4.86,4.86,0,0,1,.17,83.51V80.57c0-3,1.51-4.55,4.55-4.55h.7c3,0,4.49,1.5,4.49,4.48v4.41H7.17V80.4a1.62,1.62,0,0,0-1.85-1.86H4.83A1.63,1.63,0,0,0,3,80.4v3.08a2.53,2.53,0,0,0,1.26,2.34l3.4,2.45A4.83,4.83,0,0,1,10,92.82Z"/><path class="cls-1" d="M16,76.23V98.14h4.62v2.59H13.16V76.23Z"/><path class="cls-1" d="M26.92,100.73H23.17V76.23h3.75Z"/><path class="cls-1" d="M40,91.32v5.07c0,3-1.5,4.55-4.55,4.55h-.91c-3,0-4.55-1.5-4.55-4.55V80.57c0-3,1.51-4.55,4.55-4.55h.91c3,0,4.48,1.47,4.48,4.48v4.41H37.24V80.43a1.62,1.62,0,0,0-1.86-1.85h-.69a1.62,1.62,0,0,0-1.86,1.85v16.1a1.62,1.62,0,0,0,1.86,1.86h.77a1.62,1.62,0,0,0,1.85-1.86V91.32Z"/><path class="cls-1" d="M46,100.73h-2.8V76.23H46Z"/><path class="cls-1" d="M52.08,81.55v19.18H49.42V76.23h3.85l4.06,17.68V76.23H60v24.5h-3.5Z"/><path class="cls-1" d="M68.57,90.58V87.36h5.6v9c0,3-1.51,4.55-4.55,4.55h-2c-3,0-4.55-1.5-4.55-4.55V80.57c0-3,1.51-4.55,4.55-4.55h2c3,0,4.52,1.5,4.52,4.52v3.95H70.42V80.75c0-1-.45-1.44-1.4-1.44h-.77a1.25,1.25,0,0,0-1.43,1.44V96.22a1.24,1.24,0,0,0,1.43,1.43h.84a1.25,1.25,0,0,0,1.44-1.43V90.58Z"/><path class="cls-1" d="M89.74,100.73l-.59-4.09H84.63l-.56,4.09h-2.7l3.78-24.57h3.58l3.78,24.57ZM85,94.12h3.81L86.87,80.54Z"/><path class="cls-1" d="M105.81,90.69v5.7c0,3-1.51,4.55-4.55,4.55H99.4c-3,0-4.55-1.5-4.55-4.55V80.57c0-3,1.51-4.55,4.55-4.55h1.82c3,0,4.52,1.47,4.52,4.52v5h-3.68V80.75c0-1-.45-1.44-1.4-1.44H100a1.25,1.25,0,0,0-1.43,1.44V96.22A1.24,1.24,0,0,0,100,97.65h.7c1,0,1.4-.45,1.4-1.43V90.69Z"/><path class="cls-1" d="M118.62,92.47v8.26h-2.8V92.58a1.86,1.86,0,0,0-2.14-2.14h-2.06v10.29h-2.81V76.23H114c3,0,4.55,1.5,4.55,4.55v4.55c0,2.21-.77,3.29-2.17,3.85C118,89.6,118.62,90.58,118.62,92.47Zm-4.7-13.68h-2.3V88h2.09a1.81,1.81,0,0,0,2.07-2.07V80.64A1.62,1.62,0,0,0,113.92,78.79Z"/><path class="cls-1" d="M127.43,100.94h-1.05c-3,0-4.55-1.5-4.55-4.55V80.57c0-3,1.51-4.55,4.55-4.55h1.05c3,0,4.56,1.5,4.56,4.55V96.39C132,99.44,130.48,100.94,127.43,100.94Zm-.1-22.36h-.84a1.62,1.62,0,0,0-1.86,1.85v16.1a1.63,1.63,0,0,0,1.86,1.86h.84a1.63,1.63,0,0,0,1.86-1.86V80.43A1.62,1.62,0,0,0,127.33,78.58Z"/><path class="cls-1" d="M145.67,92.4v4c0,3-1.5,4.55-4.55,4.55h-1.64c-3,0-4.52-1.5-4.52-4.51V91.25h3.64v5c0,.94.46,1.4,1.44,1.4h.49c1,0,1.43-.46,1.43-1.4V92.93a2.16,2.16,0,0,0-1.05-2l-3.78-2.76A4.51,4.51,0,0,1,135,83.93V80.57c0-3,1.51-4.55,4.55-4.55h1.58c3,0,4.51,1.5,4.51,4.52V85h-3.67v-4.3a1.23,1.23,0,0,0-1.4-1.4h-.46a1.23,1.23,0,0,0-1.4,1.4v2.73a2.12,2.12,0,0,0,1.05,2l3.78,2.77A4.45,4.45,0,0,1,145.67,92.4Z"/><path class="cls-1" d="M158.31,92.82v3.57c0,3-1.51,4.55-4.56,4.55H153c-3,0-4.49-1.5-4.49-4.48V91.32h2.73v5.25a1.62,1.62,0,0,0,1.86,1.85h.56a1.61,1.61,0,0,0,1.85-1.85V92.89a2.5,2.5,0,0,0-1.22-2.34l-3.43-2.49a4.86,4.86,0,0,1-2.35-4.55V80.57c0-3,1.51-4.55,4.55-4.55h.7c3,0,4.49,1.5,4.49,4.48v4.41H155.5V80.4a1.62,1.62,0,0,0-1.85-1.86h-.49a1.63,1.63,0,0,0-1.86,1.86v3.08a2.53,2.53,0,0,0,1.26,2.34l3.4,2.45A4.83,4.83,0,0,1,158.31,92.82Z"/><path class="cls-1" d="M176.86,91.67v4.51c0,3-1.51,4.55-4.55,4.55h-6.13V76.23h6.06c3,0,4.55,1.5,4.55,4.55v3.61c0,2.17-.74,3.25-2.07,3.74C176.16,88.62,176.86,89.67,176.86,91.67Zm-5.19-12.15h-1.78v7.14h1.65a1.36,1.36,0,0,0,1.54-1.54v-4.2A1.24,1.24,0,0,0,171.67,79.52Zm-1.78,17.92h1.86a1.23,1.23,0,0,0,1.4-1.4V91.39a1.34,1.34,0,0,0-1.54-1.54h-1.72Z"/><path class="cls-1" d="M182.7,100.73h-2.8V76.23h2.8Z"/><path class="cls-1" d="M188.47,76.23V98.77h5v2h-7.1V76.23Z"/><path class="cls-1" d="M199.05,76.23V98.14h4.62v2.59h-7.42V76.23Z"/><path class="cls-1" d="M210.07,92.16v8.57h-2.8V92.37l-4-16.14h2.87l2.48,12,2.59-12H214Z"/><path class="cls-1" d="M3.08,138.74H.28v-24.5H5.11c3.05,0,4.55,1.51,4.55,4.55V125c0,3-1.5,4.55-4.55,4.55h-2ZM5,116.8H3.08V127H5a1.61,1.61,0,0,0,1.85-1.85v-6.48A1.61,1.61,0,0,0,5,116.8Z"/><path class="cls-1" d="M20.3,114.24v2.59H15.4V125h4.72v2.56H15.4v8.64h5v2.59H12.6v-24.5Z"/><path class="cls-1" d="M30.34,138.74l-3.81-16.48,0,4.3v12.18H23.2v-24.5h4.38l3.5,15.12,0-4.09v-11h3.37v24.5Z"/><path class="cls-1" d="M40.21,119.56v19.18H37.55v-24.5h3.86l4.06,17.68V114.24h2.66v24.5H44.62Z"/><path class="cls-1" d="M56.18,119.53c0,2.94-.81,3.74-2.49,5.91l-1,1.3-2.1-.95.63-1c1.12-1.93,1.26-2.59,1.29-3.64H50.58v-6.9h5.6Z"/><path class="cls-1" d="M69,130.41v4c0,3-1.5,4.55-4.55,4.55H62.83c-3,0-4.52-1.5-4.52-4.51v-5.18H62v5c0,.94.46,1.4,1.44,1.4h.49c1,0,1.43-.46,1.43-1.4v-3.36a2.16,2.16,0,0,0-1-2l-3.78-2.76a4.51,4.51,0,0,1-2.17-4.24v-3.36c0-3,1.51-4.55,4.55-4.55h1.58Q69,114,69,118.55V123H65.28v-4.3a1.23,1.23,0,0,0-1.4-1.4h-.46a1.23,1.23,0,0,0-1.4,1.4v2.73a2.12,2.12,0,0,0,1,2l3.78,2.77A4.45,4.45,0,0,1,69,130.41Z"/><path class="cls-1" d="M84.38,114.24v2.59H79.66V125h4.55v2.56H79.66v11.16h-2.8v-24.5Z"/><path class="cls-1" d="M98.42,138.74H94.71l-.49-3.85H90.34l-.46,3.85H86.42l3.5-24.53h5Zm-7.66-7.17h3l-1.54-12.39Z"/><path class="cls-1" d="M110.57,130.83v3.57c0,3-1.51,4.55-4.55,4.55h-.77c-3,0-4.48-1.5-4.48-4.48v-5.14h2.73v5.25a1.61,1.61,0,0,0,1.85,1.85h.56a1.62,1.62,0,0,0,1.86-1.85V130.9a2.49,2.49,0,0,0-1.23-2.34l-3.43-2.49a4.85,4.85,0,0,1-2.34-4.55v-2.94c0-3,1.5-4.55,4.55-4.55h.7c3,0,4.48,1.51,4.48,4.48v4.41h-2.73v-4.51a1.63,1.63,0,0,0-1.86-1.86h-.49a1.62,1.62,0,0,0-1.85,1.86v3.08a2.51,2.51,0,0,0,1.26,2.34l3.39,2.45A4.83,4.83,0,0,1,110.57,130.83Z"/><path class="cls-1" d="M116.13,138.74v-21.1h-3.36v-3.4h10.47v3.4h-3.36v21.1Z"/><path class="cls-1" d="M128.45,138.74h-2.8v-24.5h2.8Z"/><path class="cls-1" d="M131.84,114.24h4.62c3.68,0,5.43,1.75,5.43,5.43v13.65c0,3.67-1.75,5.42-5.43,5.42h-4.62Zm2.81,22h1.68c1.89,0,2.76-.95,2.76-2.84V119.63c0-1.89-.87-2.83-2.76-2.83h-1.68Z"/><path class="cls-1" d="M149.66,138.74h-4.9v-24.5h4.9Z"/><path class="cls-1" d="M158.13,139h-1c-3,0-4.55-1.5-4.55-4.55V118.58c0-3,1.51-4.55,4.55-4.55h1c3.05,0,4.55,1.51,4.55,4.55V134.4C162.68,137.45,161.18,139,158.13,139Zm-.1-22.36h-.84a1.62,1.62,0,0,0-1.86,1.85v16.1a1.62,1.62,0,0,0,1.86,1.86H158a1.62,1.62,0,0,0,1.85-1.86v-16.1A1.61,1.61,0,0,0,158,116.59Z"/><path class="cls-1" d="M176.65,134.4c0,3-1.51,4.55-4.55,4.55h-1.82c-3.05,0-4.56-1.5-4.56-4.55V114.24h3.75v20c0,1,.45,1.43,1.44,1.43h.59c.95,0,1.4-.45,1.4-1.43v-20h3.75Z"/><path class="cls-1" d="M190.16,130.41v4c0,3-1.51,4.55-4.55,4.55H184c-3,0-4.52-1.5-4.52-4.51v-5.18h3.64v5c0,.94.46,1.4,1.44,1.4H185c1,0,1.44-.46,1.44-1.4v-3.36a2.16,2.16,0,0,0-1-2l-3.78-2.76a4.5,4.5,0,0,1-2.18-4.24v-3.36c0-3,1.51-4.55,4.56-4.55h1.57q4.52,0,4.52,4.52V123h-3.68v-4.3a1.22,1.22,0,0,0-1.4-1.4h-.45a1.22,1.22,0,0,0-1.4,1.4v2.73a2.1,2.1,0,0,0,1.05,2l3.78,2.77A4.47,4.47,0,0,1,190.16,130.41Z"/><path class="cls-1" d="M5.5,166.6v-3.22h5.6v9c0,3.05-1.51,4.55-4.55,4.55h-2c-3,0-4.55-1.5-4.55-4.55V156.59C0,153.54,1.51,152,4.55,152h2c3.05,0,4.52,1.5,4.52,4.52v3.95H7.35v-3.74c0-1-.45-1.44-1.4-1.44H5.18a1.25,1.25,0,0,0-1.43,1.44v15.47a1.24,1.24,0,0,0,1.43,1.43H6a1.25,1.25,0,0,0,1.44-1.43V166.6Z"/><path class="cls-1" d="M23.94,168.49v8.26h-2.8V168.6c0-1.47-.66-2.14-2.14-2.14H16.94v10.29h-2.8v-24.5h5.22c3,0,4.55,1.5,4.55,4.55v4.55c0,2.21-.77,3.29-2.17,3.85C23.28,165.62,23.94,166.6,23.94,168.49Zm-4.69-13.68H16.94V164H19a1.81,1.81,0,0,0,2.07-2.07v-5.25A1.62,1.62,0,0,0,19.25,154.81Z"/><path class="cls-1" d="M30.06,176.75h-2.8v-24.5h2.8Z"/><path class="cls-1" d="M33.25,152.25h5.64c3.64,0,5.35,1.75,5.35,5.36V171.4c0,3.6-1.71,5.35-5.35,5.35H33.25ZM37,173.46h1.36c1.47,0,2.14-.7,2.14-2.17V157.71c0-1.47-.67-2.17-2.14-2.17H37Z"/><path class="cls-1" d="M55.75,152.25v21.11h4.14v3.39H52v-24.5Z"/><path class="cls-1" d="M65.34,176.75h-2.8v-24.5h2.8Z"/><path class="cls-1" d="M76.12,176.75l-4.58-12v12h-2.8v-24.5h2.8v11.87l4.83-11.87h3l-5,12,4.91,12.46Z"/><path class="cls-1" d="M89.67,152.25v3.4H85.08v6.93H89.5V166H85.08v7.39h4.66v3.39h-8.4v-24.5Z"/><path class="cls-1" d="M105.14,176.75l-.59-4.09H100l-.56,4.09h-2.7l3.78-24.57h3.58l3.78,24.57Zm-4.76-6.61h3.82l-1.93-13.58Z"/><path class="cls-1" d="M125.12,168.07v4.13c0,3.05-1.5,4.55-4.55,4.55h-5.18v-24.5h5.11c3,0,4.55,1.5,4.55,4.55v3.61c0,2.17-.73,3.29-2.13,3.81C124.35,164.78,125.12,165.9,125.12,168.07Zm-4.69-13.3h-2.27V163h2.06a1.81,1.81,0,0,0,2.07-2.07v-4.3A1.63,1.63,0,0,0,120.43,154.77Zm-2.27,19.46h2.34a1.62,1.62,0,0,0,1.86-1.85v-4.83a1.81,1.81,0,0,0-2.07-2.07h-2.13Z"/><path class="cls-1" d="M138.32,172.41c0,3.05-1.51,4.55-4.55,4.55h-.88c-3,0-4.55-1.5-4.55-4.55V152.25h2.8v20.3a1.63,1.63,0,0,0,1.86,1.86h.66a1.63,1.63,0,0,0,1.86-1.86v-20.3h2.8Z"/><path class="cls-1" d="M144.09,176.75v-21.1h-3.36v-3.4H151.2v3.4h-3.36v21.1Z"/><path class="cls-1" d="M156.28,176.75V154.84H152.6v-2.59h10.15v2.59h-3.67v21.91Z"/><path class="cls-1" d="M172.8,152.25v2h-5.29v9.07h5.11v2h-5.11v9.55h5.36v2h-7.46v-24.5Z"/><path class="cls-1" d="M186.62,168.42v8.33h-3.74v-8.26c0-1.08-.49-1.57-1.58-1.57h-1.68v9.83h-3.74v-24.5H182c3,0,4.55,1.5,4.55,4.55v4.62c0,2.17-.77,3.22-2.14,3.78C186,165.62,186.62,166.57,186.62,168.42Zm-5.18-12.84h-1.82v8.08h1.68c1,0,1.54-.49,1.54-1.5V157A1.22,1.22,0,0,0,181.44,155.58Z"/><path class="cls-1" d="M7.67,214.76l-4.59-12v12H.28v-24.5h2.8v11.87l4.83-11.87h3l-5,12,4.9,12.46Z"/><path class="cls-1" d="M20,214.76l-3.81-16.48,0,4.3v12.18H12.88v-24.5h4.37l3.51,15.12,0-4.09v-11h3.36v24.5Z"/><path class="cls-1" d="M29.65,214.76h-2.1v-24.5h2.1Z"/><path class="cls-1" d="M41.27,190.26v3.4H36.86v7.07h4.23v3.39H36.86v10.64H33.11v-24.5Z"/><path class="cls-1" d="M52.12,190.26v3.4H47.53v6.93h4.41V204H47.53v7.39h4.66v3.39h-8.4v-24.5Z"/><path class="cls-1" d="M63,214.76V192.85H59.29v-2.59H69.44v2.59H65.77v21.91Z"/><path class="cls-1" d="M79,200.59V190.26h3.75v24.5H79V204h-3.6v10.78H71.61v-24.5h3.75v10.33Z"/><path class="cls-1" d="M95.66,206.5v8.26h-2.8v-8.15a1.86,1.86,0,0,0-2.14-2.14H88.66v10.29h-2.8v-24.5h5.21c3.05,0,4.55,1.51,4.55,4.55v4.55c0,2.21-.77,3.29-2.17,3.85C95,203.63,95.66,204.61,95.66,206.5ZM91,192.82H88.66V202h2.1a1.81,1.81,0,0,0,2.06-2.07v-5.25A1.61,1.61,0,0,0,91,192.82Z"/><path class="cls-1" d="M105.21,215h-2c-3,0-4.55-1.5-4.55-4.55V194.6c0-3,1.5-4.55,4.55-4.55h2c3.05,0,4.55,1.51,4.55,4.55v15.82C109.76,213.47,108.26,215,105.21,215Zm-.59-21.63h-.77a1.26,1.26,0,0,0-1.44,1.44v15.47a1.25,1.25,0,0,0,1.44,1.43h.77c.94,0,1.4-.45,1.4-1.43V194.78C106,193.8,105.56,193.34,104.62,193.34Z"/><path class="cls-1" d="M122.78,210.42c0,3.05-1.5,4.55-4.55,4.55h-.87c-3,0-4.56-1.5-4.56-4.55V190.26h2.81v20.3a1.62,1.62,0,0,0,1.85,1.86h.66a1.62,1.62,0,0,0,1.86-1.86v-20.3h2.8Z"/><path class="cls-1" d="M131.08,204v-2h4.83v8.68c0,2.83-1.44,4.3-4.27,4.3h-1.09c-2.87,0-4.3-1.47-4.3-4.3V194.32c0-2.8,1.43-4.27,4.3-4.27h1.09c2.83,0,4.23,1.47,4.23,4.24v3.6h-2.06v-3.64a2,2,0,0,0-2.28-2.24h-.91a2,2,0,0,0-2.27,2.24v16.52a2,2,0,0,0,2.27,2.24h1a2,2,0,0,0,2.24-2.24V204Z"/><path class="cls-1" d="M146.51,200.59V190.26h3.75v24.5h-3.75V204h-3.6v10.78h-3.75v-24.5h3.75v10.33Z"/><path class="cls-1" d="M164.89,214.76l-.6-4.09h-4.51l-.57,4.09h-2.69l3.78-24.57h3.57l3.78,24.57Zm-4.77-6.61h3.82L162,194.57Z"/><path class="cls-1" d="M10,244.09v4.13c0,3.05-1.5,4.55-4.55,4.55H.28v-24.5H5.39c3.05,0,4.55,1.5,4.55,4.55v3.61c0,2.17-.73,3.29-2.13,3.81C9.24,240.8,10,241.92,10,244.09Zm-4.69-13.3H3.05V239H5.11A1.81,1.81,0,0,0,7.18,237v-4.3A1.63,1.63,0,0,0,5.32,230.79ZM3.05,250.25H5.39a1.62,1.62,0,0,0,1.86-1.85v-4.83a1.81,1.81,0,0,0-2.07-2.07H3.05Z"/><path class="cls-1" d="M23.94,248.43c0,3-1.5,4.55-4.55,4.55H17.57c-3,0-4.55-1.5-4.55-4.55V228.27h3.75v20a1.24,1.24,0,0,0,1.43,1.43h.6c.94,0,1.4-.45,1.4-1.43v-20h3.74Z"/><path class="cls-1" d="M36.86,244.51v8.26h-2.8v-8.15a1.86,1.86,0,0,0-2.14-2.14H29.86v10.29H27.05v-24.5h5.22c3,0,4.55,1.5,4.55,4.55v4.55c0,2.21-.77,3.29-2.17,3.85C36.19,241.64,36.86,242.62,36.86,244.51Zm-4.69-13.68H29.86V240H32A1.81,1.81,0,0,0,34,237.93v-5.25A1.61,1.61,0,0,0,32.17,230.83Z"/><path class="cls-1" d="M49.63,244.55v8.22h-2.1v-8.15c0-1.75-.84-2.56-2.62-2.56H42.53v10.71h-2.1v-24.5h4.86c2.87,0,4.31,1.44,4.31,4.27v4.69c0,2.28-.88,3.33-2.31,3.85C48.83,241.5,49.63,242.52,49.63,244.55Zm-4.41-14.32H42.53v9.91h2.41a2.23,2.23,0,0,0,2.56-2.52v-5.18C47.5,230.93,46.76,230.23,45.22,230.23Z"/><path class="cls-1" d="M64.33,252.77H60.62l-.49-3.85H56.25l-.46,3.85H52.33l3.5-24.54h5Zm-7.66-7.17h3l-1.54-12.39Z"/><path class="cls-1" d="M68.78,252.77V232.65h-3v-4.38H76.65v4.38h-3v20.12Z"/><path class="cls-1" d="M90.13,252.77H86.42l-.49-3.85H82l-.45,3.85H78.12l3.5-24.54h5Zm-7.67-7.17h3.05L84,233.21Z"/><path class="cls-1" d="M97.27,252.77h-5.6v-6.89h5.6Z"/><path class="cls-1" d="M114.8,252.77h-2l-.73-4.62h-5.22l-.7,4.62h-2l4.1-24.57h2.52Zm-7.66-6.58h4.58l-2.31-14.52Z"/><path class="cls-1" d="M120.29,233.59v19.18h-2.66v-24.5h3.86L125.55,246V228.27h2.66v24.5h-3.5Z"/><path class="cls-1" d="M131.36,228.27H137c3.64,0,5.36,1.75,5.36,5.36v13.79c0,3.6-1.72,5.35-5.36,5.35h-5.63Zm3.74,21.21h1.37c1.47,0,2.13-.7,2.13-2.17V233.73c0-1.47-.66-2.17-2.13-2.17H135.1Z"/><path class="cls-1" d="M155.37,248.36c0,3-1.37,4.41-4.38,4.41h-1.26v-2h1.16c1.68,0,2.34-.73,2.34-2.45V228.27h2.14Z"/><path class="cls-1" d="M169.61,248.43c0,3-1.5,4.55-4.55,4.55h-1.82c-3,0-4.55-1.5-4.55-4.55V228.27h3.75v20a1.24,1.24,0,0,0,1.43,1.43h.6c.94,0,1.4-.45,1.4-1.43v-20h3.74Z"/><path class="cls-1" d="M182.42,244.86v3.57c0,3-1.5,4.55-4.55,4.55h-.77c-3,0-4.48-1.5-4.48-4.48v-5.14h2.73v5.25a1.62,1.62,0,0,0,1.86,1.85h.56a1.61,1.61,0,0,0,1.85-1.85v-3.68a2.5,2.5,0,0,0-1.22-2.34L175,240.1a4.86,4.86,0,0,1-2.35-4.55v-2.94c0-3.05,1.51-4.55,4.55-4.55h.7c3,0,4.48,1.5,4.48,4.48V237h-2.73v-4.51a1.62,1.62,0,0,0-1.85-1.86h-.49a1.63,1.63,0,0,0-1.86,1.86v3.08a2.53,2.53,0,0,0,1.26,2.34l3.4,2.45A4.84,4.84,0,0,1,182.42,244.86Z"/><path class="cls-1" d="M188,252.77v-21.1h-3.37v-3.4h10.47v3.4h-3.36v21.1Z"/><path class="cls-1" d="M3.08,266.28v21.91H7.7v2.59H.28v-24.5Z"/><path class="cls-1" d="M13.3,290.78H10.5v-24.5h2.8Z"/><path class="cls-1" d="M23.87,290.78l-3.64-12v12H16.49v-24.5h3.74v11.83l3.89-11.83H28l-4.2,12,4.06,12.46Z"/><path class="cls-1" d="M38.22,266.28v3.39H33.64v6.94h4.41V280H33.64v7.39h4.65v3.39h-8.4v-24.5Z"/><path class="cls-1" d="M49.07,290.78V268.87H45.39v-2.59H55.55v2.59H51.87v21.91Z"/><path class="cls-1" d="M65.7,277.31v-11h2.1v24.5H65.7V279.27H60.31v11.51h-2.1v-24.5h2.1v11Z"/><path class="cls-1" d="M79.14,266.28v2.59h-4.9V277H79v2.56H74.24v8.64h5v2.59H71.44v-24.5Z"/><path class="cls-1" d="M96.46,282.45v4c0,3.05-1.5,4.55-4.55,4.55H90.27c-3,0-4.52-1.5-4.52-4.51V281.3h3.64v5c0,.94.46,1.4,1.44,1.4h.49c1,0,1.43-.46,1.43-1.4V283a2.16,2.16,0,0,0-1-2l-3.78-2.76A4.51,4.51,0,0,1,85.75,274v-3.36c0-3,1.51-4.55,4.55-4.55h1.58c3,0,4.51,1.51,4.51,4.51V275H92.72v-4.3a1.23,1.23,0,0,0-1.4-1.4h-.46a1.23,1.23,0,0,0-1.4,1.4v2.73a2.12,2.12,0,0,0,1.05,2l3.78,2.77A4.45,4.45,0,0,1,96.46,282.45Z"/><path class="cls-1" d="M102.1,290.78V268.87H98.42v-2.59h10.15v2.59H104.9v21.91Z"/><path class="cls-1" d="M121.49,282.45v8.33h-3.75v-8.26c0-1.08-.49-1.57-1.57-1.57h-1.68v9.83h-3.75v-24.5h6.16c3,0,4.55,1.51,4.55,4.55v4.62c0,2.17-.77,3.22-2.13,3.78C120.86,279.65,121.49,280.6,121.49,282.45Zm-5.18-12.84h-1.82v8.08h1.68c1,0,1.54-.49,1.54-1.5V271A1.23,1.23,0,0,0,116.31,269.61Z"/><path class="cls-1" d="M132.27,266.28v2.59h-4.9V277h4.72v2.56h-4.72v8.64h5v2.59h-7.77v-24.5Z"/><path class="cls-1" d="M143.47,266.28v3.39h-4.59v6.94h4.41V280h-4.41v7.39h4.66v3.39h-8.4v-24.5Z"/><path class="cls-1" d="M149.38,290.78V268.24h-3.85v-2h9.8v2h-3.85v22.54Z"/><path class="cls-1" d="M165.48,290.78h-2.8v-24.5h2.8Z"/><path class="cls-1" d="M171.29,290.78V269.67h-3.36v-3.39H178.4v3.39H175v21.11Z"/><path class="cls-1" d="M185.15,279.2v3.25h-6.54V279.2Z"/><path class="cls-1" d="M10,320.88v3.57C10,327.5,8.47,329,5.43,329H4.66c-3,0-4.48-1.5-4.48-4.48v-5.14H2.91v5.25a1.61,1.61,0,0,0,1.85,1.85h.56a1.62,1.62,0,0,0,1.86-1.85V321A2.49,2.49,0,0,0,6,318.61l-3.43-2.49a4.85,4.85,0,0,1-2.34-4.55v-2.94c0-3,1.5-4.55,4.55-4.55h.7c3,0,4.48,1.51,4.48,4.48V313H7.18v-4.51a1.63,1.63,0,0,0-1.86-1.86H4.83A1.62,1.62,0,0,0,3,308.46v3.08a2.51,2.51,0,0,0,1.26,2.34l3.39,2.45A4.83,4.83,0,0,1,10,320.88Z"/><path class="cls-1" d="M20.83,304.29v2H15.54v9.07h5.11v2H15.54v9.55H20.9v2H13.44v-24.5Z"/><path class="cls-1" d="M27.65,304.29V325.4h4.13v3.39H23.91v-24.5Z"/><path class="cls-1" d="M41.93,304.29v2.59H37.21v8.19h4.55v2.56H37.21v11.16h-2.8v-24.5Z"/><path class="cls-1" d="M44.91,327.43a4.91,4.91,0,0,1-.91,3.25l-.74,1.16-1.12-.32.42-.91a7.11,7.11,0,0,0,.56-1.82h-.95v-4.06h2.74Z"/><path class="cls-1" d="M55.54,328.79V306.88H51.87v-2.59H62v2.59H58.35v21.91Z"/><path class="cls-1" d="M71.54,314.62V304.29h3.75v24.5H71.54V318h-3.6v10.78H64.19v-24.5h3.75v10.33Z"/><path class="cls-1" d="M86.1,304.29v2H80.82v9.07h5.11v2H80.82v9.55h5.35v2H78.72v-24.5Z"/><path class="cls-1" d="M97.06,328.79h-2.8v-24.5h4.83c3,0,4.55,1.51,4.55,4.55V315c0,3-1.51,4.55-4.55,4.55h-2ZM99,306.85H97.06V317H99a1.62,1.62,0,0,0,1.86-1.85V308.7A1.62,1.62,0,0,0,99,306.85Z"/><path class="cls-1" d="M114.31,304.29v2H109v9.07h5.11v2H109v9.55h5.35v2h-7.45v-24.5Z"/><path class="cls-1" d="M123.87,329h-2c-3,0-4.55-1.5-4.55-4.55V308.63c0-3,1.51-4.55,4.55-4.55h2c3,0,4.55,1.51,4.55,4.55v15.82C128.42,327.5,126.91,329,123.87,329Zm-.6-21.63h-.77a1.25,1.25,0,0,0-1.43,1.44v15.47a1.24,1.24,0,0,0,1.43,1.43h.77c1,0,1.4-.45,1.4-1.43V308.81C124.67,307.83,124.22,307.37,123.27,307.37Z"/><path class="cls-1" d="M134.3,328.79h-2.8v-24.5h4.83c3,0,4.55,1.51,4.55,4.55V315c0,3-1.51,4.55-4.55,4.55h-2Zm1.92-21.94H134.3V317h1.92a1.62,1.62,0,0,0,1.86-1.85V308.7A1.62,1.62,0,0,0,136.22,306.85Z"/><path class="cls-1" d="M147.39,304.29V325.4h4.13v3.39h-7.88v-24.5Z"/><path class="cls-1" d="M161.84,304.29v2.59h-4.9V315h4.73v2.56h-4.73v8.64h5v2.59h-7.77v-24.5Z"/><path class="cls-1" d="M169.61,327.25c0,2.91-.63,3.82-2.41,5.39l-1.37,1.23L164,333l.59-.91c1.09-1.65,1.3-2.31,1.34-3.26H164V321.9h5.6Z"/><path class="cls-1" d="M9.7,359.07v3.71c0,2.8-1.44,4.23-4.31,4.23H4.62c-2.83,0-4.27-1.43-4.27-4.2v-5H2.42v5.11c0,1.47.77,2.17,2.27,2.17h.63c1.51,0,2.28-.7,2.28-2.17v-3.74a3,3,0,0,0-1.4-2.7l-3.61-2.69a4.75,4.75,0,0,1-2.2-4.38v-3c0-2.8,1.4-4.24,4.3-4.24h.67c2.83,0,4.27,1.44,4.27,4.2v4.31H7.56v-4.38c0-1.47-.73-2.17-2.27-2.17H4.76c-1.54,0-2.27.7-2.27,2.17v3.12A3,3,0,0,0,3.89,352l3.6,2.66A4.72,4.72,0,0,1,9.7,359.07Z"/><path class="cls-1" d="M20.41,353V342.3h2.8v24.5h-2.8V355.6H15.86v11.2h-2.8V342.3h2.8V353Z"/><path class="cls-1" d="M32.06,367H31c-3,0-4.55-1.5-4.55-4.55V346.64c0-3,1.51-4.55,4.55-4.55h1.05c3,0,4.55,1.51,4.55,4.55v15.82C36.61,365.51,35.11,367,32.06,367ZM32,344.65h-.84a1.62,1.62,0,0,0-1.86,1.85v16.1a1.63,1.63,0,0,0,1.86,1.86H32a1.62,1.62,0,0,0,1.85-1.86V346.5A1.61,1.61,0,0,0,32,344.65Z"/><path class="cls-1" d="M43.47,366.8H39.73V342.3h5.88c3,0,4.55,1.51,4.55,4.55v6.51c0,3.05-1.51,4.55-4.55,4.55H43.47ZM45,345.59H43.47v9H45c1,0,1.4-.45,1.4-1.43V347C46.41,346.05,46,345.59,45,345.59Z"/><path class="cls-1" d="M62.62,358.89v3.57c0,3.05-1.51,4.55-4.55,4.55H57.3c-3,0-4.48-1.5-4.48-4.48v-5.14h2.72v5.25a1.62,1.62,0,0,0,1.86,1.85H58a1.62,1.62,0,0,0,1.86-1.85V359a2.49,2.49,0,0,0-1.23-2.34l-3.43-2.49a4.85,4.85,0,0,1-2.34-4.55v-2.94c0-3,1.5-4.55,4.55-4.55h.7c3,0,4.48,1.51,4.48,4.48V351H59.82v-4.51A1.63,1.63,0,0,0,58,344.61h-.49a1.62,1.62,0,0,0-1.85,1.86v3.08a2.51,2.51,0,0,0,1.26,2.34l3.39,2.45A4.83,4.83,0,0,1,62.62,358.89Z"/><path class="cls-1" d="M68.88,365a5.51,5.51,0,0,1-1.33,4.13l-.8,1.19-1.44-.42.46-.95a14.82,14.82,0,0,0,.8-2.17H65.35v-4.65h3.53Z"/><path class="cls-1" d="M87.78,366.8H84.07L83.58,363H79.7l-.46,3.85H75.78l3.5-24.53h5Zm-7.66-7.17h3l-1.54-12.39Z"/><path class="cls-1" d="M92.89,347.62V366.8H90.23V342.3h3.85L98.14,360V342.3h2.66v24.5H97.3Z"/><path class="cls-1" d="M104.44,342.3h4.31c3.5,0,5.21,1.72,5.21,5.22v14.07c0,3.5-1.71,5.21-5.21,5.21h-4.31Zm2.1,22.54h2.1c2.17,0,3.22-1,3.22-3.25V347.52c0-2.21-1-3.26-3.22-3.26h-2.1Z"/><path class="cls-1" d="M132.9,358.47v8.33h-3.75v-8.26c0-1.08-.49-1.57-1.57-1.57H125.9v9.83h-3.75V342.3h6.16c3.05,0,4.55,1.51,4.55,4.55v4.62c0,2.17-.77,3.22-2.13,3.78C132.27,355.67,132.9,356.62,132.9,358.47Zm-5.18-12.84H125.9v8.08h1.68c1,0,1.54-.49,1.54-1.5V347A1.23,1.23,0,0,0,127.72,345.63Z"/><path class="cls-1" d="M143.68,342.3v2.59h-4.9V353h4.72v2.56h-4.72v8.64h5v2.59H136V342.3Z"/><path class="cls-1" d="M157.15,358.47v4c0,3.05-1.5,4.55-4.55,4.55H151c-3.05,0-4.52-1.5-4.52-4.51v-5.18h3.64v5c0,.94.46,1.4,1.44,1.4H152c1,0,1.43-.46,1.43-1.4V359a2.16,2.16,0,0,0-1.05-2l-3.78-2.76a4.51,4.51,0,0,1-2.17-4.24v-3.36c0-3,1.51-4.55,4.55-4.55h1.58q4.52,0,4.51,4.52v4.44h-3.67v-4.3a1.23,1.23,0,0,0-1.4-1.4h-.46a1.23,1.23,0,0,0-1.4,1.4v2.73a2.12,2.12,0,0,0,1,2l3.78,2.77A4.45,4.45,0,0,1,157.15,358.47Z"/><path class="cls-1" d="M162.79,366.8V344.89h-3.68V342.3h10.15v2.59h-3.67V366.8Z"/><path class="cls-1" d="M177.87,366.8l-.59-4.09h-4.52l-.56,4.09h-2.69l3.78-24.57h3.57l3.78,24.57Zm-4.76-6.61h3.82L175,346.61Z"/><path class="cls-1" d="M193.94,362.46c0,3.05-1.51,4.55-4.55,4.55h-1.82c-3,0-4.55-1.5-4.55-4.55V342.3h3.74v20a1.25,1.25,0,0,0,1.44,1.43h.59c1,0,1.4-.45,1.4-1.43v-20h3.75Z"/><path class="cls-1" d="M202.72,355.22v3.25h-6.54v-3.25Z"/><path class="cls-1" d="M10.82,396.48v8.33H7.07v-8.26c0-1.08-.49-1.57-1.57-1.57H3.82v9.83H.07v-24.5H6.23c3,0,4.55,1.51,4.55,4.55v4.62c0,2.17-.77,3.22-2.13,3.78C10.19,393.68,10.82,394.63,10.82,396.48ZM5.64,383.64H3.82v8.08H5.5c1,0,1.54-.49,1.54-1.5V385A1.23,1.23,0,0,0,5.64,383.64Z"/><path class="cls-1" d="M21.53,404.81l-.6-4.09H16.42l-.56,4.09h-2.7l3.78-24.57h3.57l3.78,24.57Zm-4.76-6.61h3.81l-1.92-13.58Z"/><path class="cls-1" d="M33.85,404.81,30,388.33l0,4.3v12.18H26.71v-24.5h4.37l3.5,15.12,0-4.09v-11h3.36v24.5Z"/><path class="cls-1" d="M44,404.81V382.27H40.15v-2H50v2H46.1v22.54Z"/><path class="cls-1" d="M63.63,396v4.51c0,3-1.5,4.55-4.55,4.55H56.35c-3,0-4.55-1.5-4.55-4.55v-5.21h4.8V400a.76.76,0,0,0,.87.87h.46a.76.76,0,0,0,.87-.87v-2.94A1.67,1.67,0,0,0,58,395.5l-4.2-3.11a4.11,4.11,0,0,1-2-3.85v-3.89c0-3,1.51-4.55,4.55-4.55H59c3.05,0,4.55,1.51,4.55,4.55v4.48H58.77v-4a.77.77,0,0,0-.88-.88h-.38a.77.77,0,0,0-.88.88v2.31a1.67,1.67,0,0,0,.84,1.57l4.2,3.12A4,4,0,0,1,63.63,396Z"/><path class="cls-1" d="M77.25,405h-1c-3,0-4.55-1.5-4.55-4.55V384.65c0-3,1.5-4.55,4.55-4.55h1c3,0,4.55,1.51,4.55,4.55v15.82C81.8,403.52,80.29,405,77.25,405Zm-.11-22.36H76.3a1.61,1.61,0,0,0-1.85,1.85v16.1a1.62,1.62,0,0,0,1.85,1.86h.84A1.63,1.63,0,0,0,79,400.61v-16.1A1.62,1.62,0,0,0,77.14,382.66Z"/><path class="cls-1" d="M93,380.31v3.4H88.62v7.07h4.24v3.39H88.62v10.64H84.88v-24.5Z"/><path class="cls-1" d="M108.36,380.31v2h-5.28v9.07h5.11v2h-5.11v9.55h5.35v2H101v-24.5Z"/><path class="cls-1" d="M122.75,404.81H119l-.49-3.85h-3.89l-.45,3.85h-3.47l3.5-24.53h5Zm-7.67-7.17h3l-1.54-12.39Z"/><path class="cls-1" d="M134.89,396.9v3.57c0,3-1.5,4.55-4.55,4.55h-.77c-3,0-4.48-1.5-4.48-4.48V395.4h2.73v5.25a1.62,1.62,0,0,0,1.86,1.85h.56a1.61,1.61,0,0,0,1.85-1.85V397a2.5,2.5,0,0,0-1.22-2.34l-3.43-2.49a4.86,4.86,0,0,1-2.35-4.55v-2.94c0-3,1.51-4.55,4.55-4.55h.7c3,0,4.48,1.51,4.48,4.48V389h-2.73v-4.51a1.62,1.62,0,0,0-1.85-1.86h-.49a1.62,1.62,0,0,0-1.86,1.86v3.08a2.53,2.53,0,0,0,1.26,2.34l3.4,2.45A4.84,4.84,0,0,1,134.89,396.9Z"/><path class="cls-1" d="M140.42,404.81V382.9h-3.68v-2.59H146.9v2.59h-3.68v21.91Z"/><path class="cls-1" d="M3.82,442.82H.07v-24.5H6c3.05,0,4.55,1.51,4.55,4.55v6.51c0,3.05-1.5,4.55-4.55,4.55H3.82Zm1.54-21.21H3.82v9H5.36c.94,0,1.4-.45,1.4-1.43V423A1.24,1.24,0,0,0,5.36,421.61Z"/><path class="cls-1" d="M20.9,442.82l-.6-4.09H15.79l-.56,4.09h-2.7l3.78-24.57h3.57l3.78,24.57Zm-4.76-6.61H20L18,422.62Z"/><path class="cls-1" d="M36.68,434.49v4c0,3-1.5,4.55-4.55,4.55H30.49c-3,0-4.52-1.5-4.52-4.51v-5.18h3.64v5c0,.94.46,1.4,1.44,1.4h.49c1,0,1.43-.46,1.43-1.4V435a2.16,2.16,0,0,0-1-2l-3.78-2.76A4.51,4.51,0,0,1,26,426v-3.36c0-3,1.51-4.55,4.55-4.55H32.1c3,0,4.51,1.51,4.51,4.51v4.45H32.94v-4.3a1.23,1.23,0,0,0-1.4-1.4h-.46a1.23,1.23,0,0,0-1.4,1.4v2.73a2.12,2.12,0,0,0,1.05,2l3.78,2.77A4.45,4.45,0,0,1,36.68,434.49Z"/><path class="cls-1" d="M49,435.09v3.71c0,2.8-1.44,4.23-4.31,4.23H44c-2.83,0-4.27-1.43-4.27-4.2v-5h2.07v5.11c0,1.47.77,2.17,2.27,2.17h.63c1.51,0,2.28-.7,2.28-2.17v-3.74a3,3,0,0,0-1.4-2.7l-3.61-2.69a4.75,4.75,0,0,1-2.2-4.38v-3.05c0-2.8,1.4-4.23,4.3-4.23h.67c2.83,0,4.27,1.43,4.27,4.2v4.31H46.9v-4.38c0-1.47-.73-2.17-2.27-2.17H44.1c-1.54,0-2.27.7-2.27,2.17v3.12a3,3,0,0,0,1.4,2.69l3.6,2.66A4.72,4.72,0,0,1,49,435.09Z"/><path class="cls-1" d="M59,434.11v8.71H55.27v-8.33l-4-16.17h3.85l2.1,10.43,2.24-10.43H63Z"/><path class="cls-1" d="M75.11,438.48c0,3-1.5,4.55-4.55,4.55h-.87c-3,0-4.55-1.5-4.55-4.55V418.32h2.8v20.3a1.62,1.62,0,0,0,1.85,1.86h.67a1.62,1.62,0,0,0,1.85-1.86v-20.3h2.8Z"/><path class="cls-1" d="M85.37,442.82l-3.82-16.48,0,4.3v12.18H78.23v-24.5H82.6l3.5,15.12,0-4.09v-11h3.36v24.5Z"/><path class="cls-1" d="M100,442.82l-4.58-12v12h-2.8v-24.5h2.8v11.87l4.83-11.87h3l-5,12,4.9,12.46Z"/><path class="cls-1" d="M110.08,418.32h5.63c3.64,0,5.36,1.75,5.36,5.35v13.8c0,3.6-1.72,5.35-5.36,5.35h-5.63Zm3.74,21.21h1.37c1.47,0,2.13-.7,2.13-2.17V423.78c0-1.47-.66-2.17-2.13-2.17h-1.37Z"/><path class="cls-1" d="M131.85,418.32v2.59H127V429h4.72v2.56H127v8.64h5v2.59h-7.77v-24.5Z"/><path class="cls-1" d="M142.87,418.32v3.39h-4.41v7.08h4.24v3.39h-4.24v10.64h-3.74v-24.5Z"/><path class="cls-1" d="M148.47,442.82h-2.8v-24.5h2.8Z"/><path class="cls-1" d="M158.8,442.82,155,426.34l0,4.3v12.18h-3.36v-24.5H156l3.5,15.12,0-4.09v-11h3.36v24.5Z"/><path class="cls-1" d="M169.58,442.82h-3.75v-24.5h3.75Z"/><path class="cls-1" d="M175.46,442.82V420.91h-3.68v-2.59h10.15v2.59h-3.67v21.91Z"/><path class="cls-1" d="M192.43,418.32v3.39h-4.58v6.94h4.41V432h-4.41v7.39h4.65v3.39h-8.4v-24.5Z"/><path class="cls-1" d="M201,431.24v3.25h-6.54v-3.25Z"/><path class="cls-1" d="M3.08,456.33v21.91H7.7v2.59H.28v-24.5Z"/><path class="cls-1" d="M17.08,472.12v8.71H13.34V472.5l-4-16.17h3.85l2.1,10.43,2.24-10.43h3.61Z"/><path class="cls-1" d="M37.84,472.92v3.57c0,3.05-1.51,4.55-4.55,4.55h-.77c-3,0-4.48-1.5-4.48-4.48v-5.14h2.72v5.25a1.62,1.62,0,0,0,1.86,1.85h.56A1.62,1.62,0,0,0,35,476.67V473a2.49,2.49,0,0,0-1.23-2.34l-3.43-2.49A4.85,4.85,0,0,1,28,463.61v-2.94c0-3.05,1.5-4.55,4.54-4.55h.71c3,0,4.48,1.5,4.48,4.48V465H35V460.5a1.62,1.62,0,0,0-1.86-1.86h-.49a1.62,1.62,0,0,0-1.86,1.86v3.08a2.53,2.53,0,0,0,1.26,2.34l3.4,2.45A4.83,4.83,0,0,1,37.84,472.92Z"/><path class="cls-1" d="M43.37,480.83V458.92H39.69v-2.59H49.84v2.59H46.17v21.91Z"/><path class="cls-1" d="M63.32,480.83H59.61L59.12,477H55.23l-.45,3.85H51.31l3.5-24.54h5Zm-7.67-7.17H58.7l-1.54-12.4Z"/><path class="cls-1" d="M68.43,461.65v19.18H65.77v-24.5h3.85L73.68,474V456.33h2.66v24.5h-3.5Z"/><path class="cls-1" d="M80,456.33h4.3c3.5,0,5.22,1.71,5.22,5.21v14.08c0,3.5-1.72,5.21-5.22,5.21H80Zm2.1,22.54h2.1c2.17,0,3.22-1.05,3.22-3.25V461.54c0-2.2-1.05-3.25-3.22-3.25h-2.1Z"/><path class="cls-1" d="M104.16,481h-2c-3,0-4.55-1.5-4.55-4.55V460.67c0-3.05,1.5-4.55,4.55-4.55h2c3,0,4.55,1.5,4.55,4.55v15.82C108.71,479.54,107.21,481,104.16,481Zm-.59-21.63h-.77a1.25,1.25,0,0,0-1.44,1.43v15.48a1.25,1.25,0,0,0,1.44,1.43h.77c.94,0,1.4-.45,1.4-1.43V460.84A1.24,1.24,0,0,0,103.57,459.41Z"/><path class="cls-1" d="M121.73,476.49c0,3.05-1.5,4.55-4.55,4.55h-.87c-3,0-4.55-1.5-4.55-4.55V456.33h2.8v20.3a1.62,1.62,0,0,0,1.85,1.86h.67a1.62,1.62,0,0,0,1.85-1.86v-20.3h2.8Z"/><path class="cls-1" d="M127.44,480.83V459.72h-3.36v-3.39h10.46v3.39h-3.36v21.11Z"/><path class="cls-1" d="M141.61,480.83H136v-6.89h5.6Z"/></g></g></svg>