<?xml version="1.0" encoding="utf-8"?>
<!-- Generator: Adobe Illustrator 24.0.2, SVG Export Plug-In . SVG Version: 6.00 Build 0)  -->
<svg version="1.1" id="Layer_1" xmlns="http://www.w3.org/2000/svg" xmlns:xlink="http://www.w3.org/1999/xlink" x="0px" y="0px"
	 viewBox="0 0 214 494.2" style="enable-background:new 0 0 214 494.2;" xml:space="preserve">
<style type="text/css">
	.st0{fill:#E19740;}
	.st1{fill:#211F1E;}
</style>
<title>Asset 3</title>
<path class="st0" d="M3.1,31.3H0.3V6.8h4.8c3,0,4.5,1.5,4.5,4.6v6.2c0,3-1.5,4.5-4.6,4.5H3L3.1,31.3z M5,9.4H3.1v10.2H5
	c0.9,0.1,1.7-0.4,1.9-1.3c0-0.2,0-0.4,0-0.6v-6.5C7,10.3,6.4,9.5,5.5,9.4C5.3,9.3,5.2,9.3,5,9.4z"/>
<path class="st0" d="M19.4,31.3l-0.6-4.1h-4.5l-0.6,4.1H11l3.8-24.6h3.6l3.8,24.6H19.4z M14.6,24.7h3.8l-1.9-13.6L14.6,24.7z"/>
<path class="st0" d="M35.2,23v4c0,3-1.5,4.6-4.6,4.6H29c-3,0-4.5-1.5-4.5-4.5v-5.2h3.6v5c0,0.9,0.5,1.4,1.4,1.4H30
	c1,0,1.4-0.5,1.4-1.4v-3.3c0.1-0.8-0.3-1.6-1-2l-3.8-2.8c-1.5-0.9-2.3-2.5-2.2-4.2v-3.4C24.5,8.1,26,6.6,29,6.6h1.6
	c3,0,4.5,1.5,4.5,4.5v4.5h-3.7v-4.3c0.1-0.7-0.4-1.3-1-1.4c-0.1,0-0.3,0-0.4,0h-0.5c-0.7-0.1-1.3,0.3-1.4,1c0,0.1,0,0.3,0,0.4V14
	c-0.1,0.8,0.3,1.6,1,2l3.9,2.8C34.5,19.6,35.3,21.3,35.2,23z"/>
<path class="st0" d="M47.5,23.6v3.7c0,2.8-1.4,4.2-4.3,4.2h-0.8c-2.8,0-4.3-1.4-4.3-4.2v-5h2.1v5.1c0,1.5,0.8,2.2,2.3,2.2h0.6
	c1.5,0,2.3-0.7,2.3-2.2v-3.8c0.1-1.1-0.5-2.1-1.4-2.7l-3.6-2.7c-1.5-0.9-2.3-2.6-2.2-4.4v-3c0-2.8,1.4-4.2,4.3-4.2h0.7
	c2.8,0,4.3,1.4,4.3,4.2v4.3h-2.1v-4.4c0-1.5-0.7-2.1-2.3-2.1h-0.5c-1.5,0-2.3,0.7-2.3,2.2v3.1c-0.1,1.1,0.5,2.1,1.4,2.7l3.6,2.7
	C46.8,20.1,47.7,21.8,47.5,23.6z"/>
<path class="st0" d="M57.5,22.6v8.7h-3.8V23l-4-16.2h3.8l2.1,10.4l2.2-10.4h3.6L57.5,22.6z"/>
<path class="st0" d="M73.6,27c0,3-1.5,4.6-4.6,4.6h-0.9c-3.1,0-4.5-1.5-4.5-4.5V6.8h2.8v20.3c-0.1,0.9,0.5,1.7,1.3,1.9
	c0.2,0,0.3,0,0.5,0H69c0.9,0.1,1.7-0.5,1.9-1.3c0-0.2,0-0.3,0-0.5V6.8h2.8L73.6,27z"/>
<path class="st0" d="M83.9,31.3L80,14.8v4.3v12.2h-3.3V6.8h4.4l3.5,15.1v-4.1v-11H88v24.5C88,31.3,83.9,31.3,83.9,31.3z"/>
<path class="st0" d="M98.5,31.3l-4.6-12v12h-2.8V6.8h2.8v11.9l4.8-11.9h3l-5.1,12l4.9,12.5L98.5,31.3z"/>
<path class="st1" d="M120.4,31.3h-3.7l-0.5-3.9h-3.9l-0.4,3.9h-3.5l3.5-24.5h5L120.4,31.3z M112.8,24.1h3l-1.5-12.4L112.8,24.1z"/>
<path class="st1" d="M124.6,31.4L121,6.8h3.8l2.2,18.3l2.2-18.3h3.6l-3.6,24.5L124.6,31.4L124.6,31.4z"/>
<path class="st1" d="M143.3,6.8v3.4h-4.6v6.9h4.4v3.4h-4.4v7.4h4.7v3.4H135V6.8H143.3z"/>
<path class="st1" d="M148.9,12.1v19.2h-2.7V6.8h3.9l4.1,17.7V6.8h2.7v24.5h-3.5L148.9,12.1z"/>
<path class="st1" d="M170.9,27c0,3-1.5,4.6-4.6,4.6h-1.8c-3.1,0-4.6-1.5-4.6-4.5V6.8h3.7v20c-0.1,0.7,0.4,1.3,1,1.4
	c0.1,0,0.3,0,0.4,0h0.6c0.9,0,1.4-0.5,1.4-1.4v-20h3.8V27H170.9z"/>
<path class="st1" d="M181.7,6.8v2.6h-4.9v8.1h4.7v2.6h-4.7v8.6h5v2.6H174V6.8H181.7z"/>
<path class="st1" d="M0.3,44.8h4.6c3.7,0,5.4,1.8,5.4,5.4v13.6c0,3.7-1.8,5.4-5.4,5.4H0.3V44.8z M3.1,66.8h1.7c1.9,0,2.8-1,2.8-2.8
	V50.2c0-1.9-0.9-2.8-2.8-2.8H3.1V66.8z"/>
<path class="st1" d="M21.7,44.8v3.4h-4.6v6.9h4.4v3.4h-4.4v7.4h4.6v3.4h-8.4V44.8H21.7z"/>
<path class="st1" d="M32.2,44.8v2.6h-4.7v8.2h4.6v2.6h-4.6v11.2h-2.8V44.8H32.2z"/>
<path class="st1" d="M37.6,69.3h-2.1V44.8h2.1V69.3z"/>
<path class="st1" d="M49,44.8v2.6h-4.9v8.1h4.7v2.6H44v8.6h5v2.6h-7.8V44.8H49z"/>
<path class="st1" d="M61.7,61.4V65c0,3-1.5,4.5-4.5,4.5h-0.8c-3,0-4.5-1.5-4.5-4.5v-5.1h2.7v5.2c-0.1,0.9,0.5,1.7,1.3,1.9
	c0.2,0,0.3,0,0.5,0H57c0.9,0.1,1.7-0.5,1.9-1.3c0-0.2,0-0.3,0-0.5v-3.7c0.1-1-0.4-1.9-1.2-2.3l-3.4-2.6c-1.6-0.9-2.5-2.7-2.3-4.5
	v-2.9c0-3,1.5-4.5,4.5-4.5h0.7c3,0,4.5,1.5,4.5,4.5v4.4H59v-4.5c0.1-0.9-0.5-1.7-1.4-1.9c-0.2,0-0.3,0-0.5,0h-0.5
	c-0.9-0.1-1.7,0.5-1.9,1.3c0,0.2,0,0.3,0,0.5v3.1c-0.1,1,0.4,1.9,1.3,2.3l3.4,2.5C61,57.8,61.9,59.6,61.7,61.4z"/>
<path class="st1" d="M80.5,59.3V65c0,3-1.5,4.5-4.6,4.5H74c-3,0-4.6-1.5-4.6-4.5V49.2c0-3,1.5-4.5,4.6-4.5h1.8c3,0,4.5,1.5,4.5,4.5
	v5h-3.7v-4.8c0-1-0.4-1.4-1.4-1.4h-0.6c-0.7-0.1-1.3,0.4-1.4,1c0,0.1,0,0.3,0,0.4v15.5c-0.1,0.7,0.4,1.3,1,1.4c0.1,0,0.3,0,0.4,0
	h0.7c1,0,1.4-0.4,1.4-1.4v-5.5h3.8V59.3z"/>
<path class="st1" d="M86.3,69.3h-2.8V44.8h2.8V69.3z"/>
<path class="st1" d="M92.4,69.3V47.4h-3.7v-2.6h10.2v2.6h-3.7v21.9H92.4z"/>
<path class="st1" d="M107.9,60.6v8.7h-3.8V61l-4-16.2h3.8l2.1,10.4l2.2-10.4h3.6L107.9,60.6z"/>
<path class="st1" d="M128.7,61.1v8.3h-2.8v-8.2c0-1.5-0.7-2.1-2.1-2.1h-2.1v10.3h-2.8V44.8h5.2c3,0,4.6,1.5,4.6,4.5v4.5
	c0,2.2-0.8,3.3-2.2,3.8C128.1,58.2,128.7,59.2,128.7,61.1z M124,47.4h-2.3v9.2h2.1c1,0.2,1.9-0.5,2.1-1.5c0-0.2,0-0.4,0-0.6v-5.3
	c0.1-0.9-0.5-1.7-1.3-1.9C124.3,47.4,124.2,47.4,124,47.4z"/>
<path class="st1" d="M142.7,65c0,3-1.5,4.5-4.6,4.5h-1.8c-3.1,0-4.6-1.5-4.6-4.5V44.8h3.7v20c-0.1,0.7,0.4,1.3,1,1.4
	c0.1,0,0.3,0,0.4,0h0.6c0.9,0,1.4-0.4,1.4-1.4v-20h3.7L142.7,65z"/>
<path class="st1" d="M148.2,44.8v22.5h5v2h-7.1V44.8H148.2z"/>
<path class="st1" d="M164.1,44.8v3.4h-4.6v6.9h4.4v3.4h-4.4v7.4h4.7v3.4h-8.4V44.8H164.1z"/>
<path class="st1" d="M176.8,61.4V65c0,3-1.5,4.5-4.6,4.5h-0.8c-3,0-4.5-1.5-4.5-4.5v-5.1h2.7v5.2c-0.1,0.9,0.5,1.7,1.3,1.9
	c0.2,0,0.3,0,0.5,0h0.6c0.9,0.1,1.7-0.4,1.9-1.3c0-0.2,0-0.3,0-0.5v-3.7c0.1-1-0.4-1.9-1.2-2.3l-3.4-2.5c-1.6-0.9-2.5-2.7-2.3-4.5
	v-2.9c0-3,1.5-4.5,4.6-4.5h0.7c3,0,4.5,1.5,4.5,4.5v4.4H174v-4.5c0.1-0.9-0.5-1.7-1.4-1.9c-0.2,0-0.3,0-0.5,0h-0.5
	c-0.9-0.1-1.7,0.5-1.9,1.3c0,0.2,0,0.3,0,0.5v3.1c-0.1,0.9,0.4,1.8,1.2,2.3l3.4,2.5C176,57.8,176.9,59.6,176.8,61.4z"/>
<path class="st1" d="M194.4,60.7v4.4c0,2.8-1.4,4.3-4.3,4.3h-4.9V44.8h4.9c2.9,0,4.3,1.4,4.3,4.3V53c0,2.2-0.8,3.3-2.3,3.8
	C193.5,57.3,194.4,58.5,194.4,60.7z M190,46.8h-2.8v9.1h2.4c1.8,0,2.6-0.8,2.6-2.5V49c0.1-1.1-0.6-2.1-1.7-2.2
	C190.4,46.7,190.2,46.7,190,46.8z M187.2,67.4h2.8c1.1,0.2,2.1-0.6,2.3-1.7c0-0.2,0-0.4,0-0.6v-4.8c0.2-1.3-0.7-2.4-2-2.6
	c-0.2,0-0.4,0-0.6,0h-2.5V67.4z"/>
<path class="st1" d="M203.6,60.8v8.6h-2.8V61l-3.9-16.1h2.9l2.5,12l2.6-12h2.8L203.6,60.8z"/>
<path class="st1" d="M10,99.4v3.6c0,3-1.5,4.6-4.6,4.6H4.7c-3,0-4.5-1.5-4.5-4.5V98h2.7v5.2c-0.1,0.9,0.5,1.7,1.3,1.9
	c0.2,0,0.3,0,0.5,0h0.6c0.9,0.1,1.7-0.4,1.8-1.3c0-0.2,0-0.3,0-0.5v-3.7c0.2-1-0.3-2-1.1-2.4l-3.5-2.5C0.9,93.8,0,92,0.2,90.2v-2.9
	c0-3,1.5-4.6,4.6-4.6h0.7c3,0,4.5,1.5,4.5,4.5v4.4H7.2v-4.5c0.1-0.9-0.5-1.7-1.3-1.9c-0.2,0-0.3,0-0.5,0H4.8C3.9,85,3.1,85.6,3,86.5
	c0,0.2,0,0.3,0,0.5v3.1c-0.1,1,0.4,1.9,1.3,2.3l3.4,2.4C9.2,95.8,10.2,97.6,10,99.4z"/>
<path class="st1" d="M16,82.8v21.9h4.6v2.6h-7.5V82.8H16z"/>
<path class="st1" d="M26.9,107.3h-3.8V82.8h3.8V107.3z"/>
<path class="st1" d="M40,97.9v5.1c0,3-1.5,4.6-4.5,4.6h-0.9c-3,0-4.5-1.5-4.5-4.6V87.2c0-3,1.5-4.6,4.5-4.6h0.9c3,0,4.5,1.5,4.5,4.5
	v4.4h-2.7V87c0.1-0.9-0.5-1.7-1.3-1.9c-0.2,0-0.3,0-0.5,0h-0.7c-0.9-0.1-1.7,0.5-1.9,1.3c0,0.2,0,0.3,0,0.5V103
	c-0.1,0.9,0.5,1.7,1.3,1.9c0.2,0,0.3,0,0.5,0h0.8c0.9,0.1,1.7-0.5,1.9-1.3c0-0.2,0-0.3,0-0.5v-5.2H40z"/>
<path class="st1" d="M46,107.3h-2.8V82.8H46V107.3z"/>
<path class="st1" d="M52.1,88.2v19.2h-2.7V82.8h3.8l4.1,17.7V82.8H60v24.5h-3.5L52.1,88.2z"/>
<path class="st1" d="M68.6,97.2V94h5.6v9c0,3-1.5,4.6-4.6,4.6h-2c-3,0-4.5-1.5-4.5-4.6V87.2c0-3,1.5-4.6,4.5-4.6h2
	c3,0,4.5,1.5,4.5,4.5V91h-3.7v-3.7c0-1-0.4-1.4-1.4-1.4h-0.8c-0.7-0.1-1.3,0.4-1.4,1c0,0.1,0,0.3,0,0.4v15.5c-0.1,0.7,0.3,1.3,1,1.4
	c0.1,0,0.3,0,0.4,0H69c0.7,0.1,1.3-0.3,1.4-1c0-0.1,0-0.3,0-0.4v-5.6C70.4,97.2,68.6,97.2,68.6,97.2z"/>
<path class="st1" d="M89.7,107.3l-0.6-4.1h-4.5l-0.6,4.1h-2.7l3.8-24.6h3.6l3.8,24.6H89.7z M85,100.7h3.8l-1.9-13.6L85,100.7z"/>
<path class="st1" d="M105.8,97.3v5.7c0,3-1.5,4.6-4.6,4.6h-1.9c-3,0-4.6-1.5-4.6-4.6V87.2c0-3,1.5-4.6,4.6-4.6h1.8
	c3,0,4.5,1.5,4.5,4.5v5h-3.7v-4.8c0-1-0.4-1.4-1.4-1.4H100c-0.7-0.1-1.3,0.4-1.4,1c0,0.1,0,0.3,0,0.4v15.5c-0.1,0.7,0.3,1.3,1,1.4
	c0.1,0,0.3,0,0.4,0h0.7c1,0,1.4-0.4,1.4-1.4v-5.5H105.8z"/>
<path class="st1" d="M118.6,99.1v8.3h-2.8v-8.2c0.2-1-0.5-2-1.5-2.1c-0.2,0-0.4,0-0.6,0h-2.1v10.3h-2.8V82.8h5.2
	c3,0,4.6,1.5,4.6,4.6V92c0,2.2-0.8,3.3-2.2,3.8C118,96.2,118.6,97.2,118.6,99.1z M113.9,85.4h-2.3v9.2h2.1c1,0.2,1.9-0.5,2.1-1.5
	c0-0.2,0-0.4,0-0.6v-5.3c0.1-0.9-0.5-1.7-1.3-1.9C114.3,85.4,114.1,85.4,113.9,85.4z"/>
<path class="st1" d="M127.4,107.5h-1.1c-3,0-4.6-1.5-4.6-4.6V87.2c0-3,1.5-4.6,4.6-4.6h1.1c3,0,4.6,1.5,4.6,4.6V103
	C132,106,130.5,107.5,127.4,107.5z M127.3,85.2h-0.8c-0.9-0.1-1.7,0.5-1.9,1.3c0,0.2,0,0.3,0,0.5v16.1c-0.1,0.9,0.5,1.7,1.4,1.9
	c0.2,0,0.3,0,0.5,0h0.8c0.9,0.1,1.7-0.5,1.9-1.4c0-0.2,0-0.3,0-0.5V87c0.1-0.9-0.5-1.7-1.3-1.9C127.7,85.2,127.5,85.2,127.3,85.2z"
	/>
<path class="st1" d="M145.7,99v4c0,3-1.5,4.6-4.6,4.6h-1.6c-3,0-4.5-1.5-4.5-4.5v-5.2h3.6v5c0,0.9,0.5,1.4,1.4,1.4h0.5
	c1,0,1.4-0.5,1.4-1.4v-3.3c0.1-0.8-0.4-1.6-1.1-2l-3.8-2.8c-1.5-0.9-2.3-2.5-2.1-4.2v-3.4c0-3,1.5-4.6,4.6-4.6h1.6
	c3,0,4.5,1.5,4.5,4.5v4.5H142v-4.3c0.1-0.7-0.4-1.3-1-1.4c-0.1,0-0.2,0-0.4,0h-0.5c-0.7-0.1-1.3,0.4-1.4,1c0,0.1,0,0.2,0,0.4V90
	c-0.1,0.8,0.3,1.6,1.1,2l3.8,2.8C145,95.7,145.8,97.3,145.7,99z"/>
<path class="st1" d="M158.3,99.4v3.6c0,3-1.5,4.6-4.6,4.6H153c-3,0-4.5-1.5-4.5-4.5V98h2.7v5.2c-0.1,0.9,0.5,1.7,1.3,1.9
	c0.2,0,0.3,0,0.5,0h0.6c0.9,0.1,1.7-0.4,1.9-1.3c0-0.2,0-0.3,0-0.5v-3.7c0.1-0.9-0.4-1.9-1.2-2.3l-3.4-2.5c-1.6-0.9-2.5-2.7-2.4-4.6
	v-2.9c0-3,1.5-4.6,4.6-4.6h0.7c3,0,4.5,1.5,4.5,4.5v4.4h-2.8v-4.5c0.1-0.9-0.5-1.7-1.3-1.9c-0.2,0-0.3,0-0.5,0h-0.5
	c-0.9-0.1-1.7,0.5-1.9,1.4c0,0.2,0,0.3,0,0.5v3.1c-0.1,1,0.4,1.9,1.3,2.3l3.4,2.4C157.5,95.8,158.5,97.6,158.3,99.4z"/>
<path class="st1" d="M176.9,98.3v4.5c0,3-1.5,4.6-4.6,4.6h-6.1V82.8h6.1c3,0,4.6,1.5,4.6,4.6V91c0,2.2-0.7,3.2-2.1,3.7
	C176.2,95.2,176.9,96.3,176.9,98.3z M171.7,86.1h-1.8v7.1h1.6c0.7,0.1,1.4-0.4,1.5-1.2c0-0.1,0-0.3,0-0.4v-4.2
	c0.1-0.7-0.4-1.3-1.1-1.4C171.9,86.1,171.8,86.1,171.7,86.1z M169.9,104h1.9c0.7,0.1,1.3-0.4,1.4-1c0-0.1,0-0.2,0-0.4V98
	c0.1-0.7-0.4-1.4-1.1-1.5c-0.1,0-0.3,0-0.4,0H170L169.9,104L169.9,104z"/>
<path class="st1" d="M182.7,107.3h-2.8V82.8h2.8V107.3z"/>
<path class="st1" d="M188.5,82.8v22.5h5v2h-7.1V82.8H188.5z"/>
<path class="st1" d="M199.1,82.8v21.9h4.6v2.6h-7.4V82.8H199.1z"/>
<path class="st1" d="M210.1,98.8v8.6h-2.8V99l-4-16.1h2.9l2.5,12l2.6-12h2.8L210.1,98.8z"/>
<path class="st1" d="M3.1,145.3H0.3v-24.5h4.8c3,0,4.5,1.5,4.5,4.6v6.2c0,3-1.5,4.6-4.6,4.6H3L3.1,145.3z M5,123.4H3.1v10.2H5
	c0.9,0.1,1.7-0.4,1.8-1.3c0-0.2,0-0.3,0-0.5v-6.5c0.2-0.9-0.4-1.7-1.3-1.9C5.4,123.4,5.2,123.4,5,123.4z"/>
<path class="st1" d="M20.3,120.8v2.6h-4.9v8.2h4.7v2.6h-4.7v8.6h5v2.6h-7.8v-24.5L20.3,120.8z"/>
<path class="st1" d="M30.3,145.3l-3.8-16.5v4.3v12.2h-3.3v-24.5h4.4l3.5,15.1v-4.1v-11h3.4v24.5H30.3z"/>
<path class="st1" d="M40.2,126.2v19.2h-2.7v-24.5h3.9l4.1,17.7v-17.7h2.7v24.5h-3.5L40.2,126.2z"/>
<path class="st1" d="M56.2,126.1c0,2.9-0.8,3.7-2.5,5.9l-1,1.3l-2.1-0.9l0.6-1c1.1-1.9,1.3-2.6,1.3-3.6h-1.9v-6.9h5.6
	C56.2,120.9,56.2,126.1,56.2,126.1z"/>
<path class="st1" d="M69,137v4c0,3-1.5,4.6-4.6,4.6h-1.6c-3,0-4.5-1.5-4.5-4.5v-5.2H62v5c0,0.9,0.5,1.4,1.4,1.4h0.5
	c1,0,1.4-0.5,1.4-1.4v-3.4c0.1-0.8-0.3-1.6-1-2l-3.8-2.8c-1.5-0.9-2.3-2.5-2.2-4.2v-3.4c0-3,1.5-4.6,4.5-4.6h1.6
	c3,0,4.5,1.5,4.5,4.5v4.4h-3.7v-4.3c0.1-0.7-0.4-1.3-1-1.4c-0.1,0-0.2,0-0.4,0h-0.5c-0.7-0.1-1.3,0.4-1.4,1c0,0.1,0,0.2,0,0.4v2.7
	c-0.1,0.8,0.3,1.6,1,2l3.8,2.8C68.3,133.7,69.1,135.3,69,137z"/>
<path class="st1" d="M84.4,120.8v2.6h-4.7v8.2h4.6v2.6h-4.6v11.2h-2.8v-24.5L84.4,120.8z"/>
<path class="st1" d="M98.4,145.3h-3.7l-0.5-3.9h-3.9l-0.5,3.9h-3.5l3.5-24.5h5L98.4,145.3z M90.8,138.2h3l-1.5-12.4L90.8,138.2z"/>
<path class="st1" d="M110.6,137.4v3.6c0,3-1.5,4.6-4.6,4.6h-0.8c-3,0-4.5-1.5-4.5-4.5V136h2.7v5.2c-0.1,0.9,0.4,1.7,1.3,1.9
	c0.2,0,0.3,0,0.5,0h0.6c0.9,0.1,1.7-0.5,1.9-1.3c0-0.2,0-0.3,0-0.5v-3.7c0.1-1-0.4-1.9-1.2-2.3l-3.4-2.5c-1.6-0.9-2.5-2.7-2.3-4.6
	v-2.9c0-3,1.5-4.6,4.6-4.6h0.7c3,0,4.5,1.5,4.5,4.5v4.4h-2.7v-4.5c0.1-0.9-0.5-1.7-1.4-1.9c-0.2,0-0.3,0-0.5,0h-0.5
	c-0.9-0.1-1.7,0.5-1.9,1.3c0,0.2,0,0.3,0,0.5v3.1c-0.1,1,0.4,1.9,1.3,2.3l3.4,2.5C109.8,133.8,110.7,135.6,110.6,137.4z"/>
<path class="st1" d="M116.1,145.3v-21.1h-3.4v-3.4h10.5v3.4h-3.4v21.1H116.1z"/>
<path class="st1" d="M128.4,145.3h-2.8v-24.5h2.8V145.3z"/>
<path class="st1" d="M131.8,120.8h4.6c3.7,0,5.4,1.8,5.4,5.4v13.6c0,3.7-1.8,5.4-5.4,5.4h-4.6V120.8z M134.6,142.8h1.7
	c1.9,0,2.8-0.9,2.8-2.8v-13.8c0-1.9-0.9-2.8-2.8-2.8h-1.7V142.8z"/>
<path class="st1" d="M149.7,145.3h-4.9v-24.5h4.9V145.3z"/>
<path class="st1" d="M158.1,145.6h-1c-3,0-4.6-1.5-4.6-4.6v-15.9c0-3,1.5-4.6,4.6-4.6h1c3.1,0,4.6,1.5,4.6,4.6v15.8
	C162.7,144,161.2,145.6,158.1,145.6z M158,123.2h-0.8c-0.9-0.1-1.7,0.5-1.9,1.3c0,0.2,0,0.3,0,0.5v16.1c-0.1,0.9,0.5,1.7,1.3,1.9
	c0.2,0,0.3,0,0.5,0h0.8c0.9,0.1,1.7-0.5,1.9-1.3c0-0.2,0-0.3,0-0.5v-16.1c0.2-0.9-0.4-1.7-1.3-1.9
	C158.4,123.2,158.2,123.2,158,123.2L158,123.2z"/>
<path class="st1" d="M176.6,141c0,3-1.5,4.6-4.6,4.6h-1.8c-3.1,0-4.6-1.5-4.6-4.6v-20.2h3.8v20c0,1,0.4,1.4,1.4,1.4h0.6
	c0.9,0,1.4-0.4,1.4-1.4v-20h3.8L176.6,141z"/>
<path class="st1" d="M190.2,137v4c0,3-1.5,4.6-4.6,4.6H184c-3,0-4.5-1.5-4.5-4.5v-5.2h3.6v5c0,0.9,0.5,1.4,1.4,1.4h0.4
	c1,0,1.4-0.5,1.4-1.4v-3.4c0.1-0.8-0.3-1.6-1-2l-3.8-2.8c-1.5-0.9-2.3-2.5-2.2-4.2v-3.4c0-3,1.5-4.6,4.6-4.6h1.6
	c3,0,4.5,1.5,4.5,4.5v4.5h-3.7v-4.3c0.1-0.7-0.3-1.3-1-1.4c-0.1,0-0.3,0-0.4,0h-0.4c-0.7-0.1-1.3,0.3-1.4,1c0,0.1,0,0.3,0,0.4v2.7
	c-0.1,0.8,0.3,1.6,1.1,2l3.8,2.8C189.5,133.7,190.3,135.3,190.2,137z"/>
<path class="st1" d="M5.5,173.2V170h5.6v9c0,3.1-1.5,4.6-4.6,4.6h-2c-3,0-4.6-1.5-4.6-4.6v-15.8c0-3.1,1.5-4.6,4.6-4.6h2
	c3.1,0,4.5,1.5,4.5,4.5v3.9H7.3v-3.7c0-1-0.4-1.4-1.4-1.4H5.2c-0.7-0.1-1.3,0.4-1.4,1c0,0.1,0,0.3,0,0.4v15.5
	c-0.1,0.7,0.3,1.3,1,1.4c0.1,0,0.3,0,0.4,0H6c0.7,0.1,1.3-0.3,1.4-1c0-0.1,0-0.3,0-0.4v-5.6L5.5,173.2L5.5,173.2z"/>
<path class="st1" d="M23.9,175.1v8.3h-2.8v-8.1c0-1.5-0.7-2.1-2.1-2.1h-2.1v10.3h-2.8V159h5.2c3,0,4.5,1.5,4.5,4.6v4.6
	c0,2.2-0.8,3.3-2.2,3.9C23.3,172.2,23.9,173.2,23.9,175.1z M19.2,161.4h-2.3v9.2H19c1,0.2,1.9-0.5,2.1-1.5c0-0.2,0-0.4,0-0.6v-5.2
	c0.1-0.9-0.5-1.7-1.3-1.9C19.6,161.4,19.4,161.4,19.2,161.4z"/>
<path class="st1" d="M30.1,183.4h-2.8v-24.5h2.8V183.4z"/>
<path class="st1" d="M33.2,158.8h5.6c3.6,0,5.3,1.8,5.3,5.4V178c0,3.6-1.7,5.4-5.3,5.4h-5.6V158.8z M37,180.1h1.4
	c1.5,0,2.1-0.7,2.1-2.2v-13.6c0-1.5-0.7-2.2-2.1-2.2H37V180.1z"/>
<path class="st1" d="M55.8,158.8v21.1h4.1v3.4H52v-24.5H55.8z"/>
<path class="st1" d="M65.3,183.4h-2.8v-24.5h2.8V183.4z"/>
<path class="st1" d="M76.1,183.4l-4.6-12v12h-2.8v-24.5h2.8v11.9l4.8-11.9h3l-5,12l4.9,12.5H76.1z"/>
<path class="st1" d="M89.7,158.8v3.4h-4.6v6.9h4.4v3.4h-4.4v7.4h4.7v3.4h-8.4v-24.5L89.7,158.8z"/>
<path class="st1" d="M105.1,183.4l-0.6-4.1H100l-0.6,4.1h-2.7l3.8-24.6h3.6l3.8,24.6H105.1z M100.4,176.7h3.8l-1.9-13.6L100.4,176.7
	z"/>
<path class="st1" d="M125.1,174.7v4.1c0,3.1-1.5,4.6-4.6,4.6h-5.2v-24.5h5.1c3,0,4.6,1.5,4.6,4.6v3.6c0,2.2-0.7,3.3-2.1,3.8
	C124.3,171.4,125.1,172.5,125.1,174.7z M120.4,161.4h-2.3v8.2h2.1c1,0.2,1.9-0.5,2.1-1.5c0-0.2,0-0.4,0-0.6v-4.3
	c0.1-0.9-0.5-1.7-1.4-1.9C120.8,161.3,120.6,161.3,120.4,161.4z M118.2,180.8h2.3c0.9,0.1,1.7-0.5,1.9-1.3c0-0.2,0-0.3,0-0.5v-4.8
	c0.2-1-0.5-1.9-1.5-2.1c-0.2,0-0.4,0-0.6,0h-2.1C118.2,172.1,118.2,180.8,118.2,180.8z"/>
<path class="st1" d="M138.3,179c0,3.1-1.5,4.6-4.6,4.6h-0.9c-3,0-4.6-1.5-4.6-4.6v-20.2h2.8v20.3c-0.1,0.9,0.5,1.7,1.4,1.9
	c0.2,0,0.3,0,0.5,0h0.7c0.9,0.1,1.7-0.5,1.9-1.4c0-0.2,0-0.3,0-0.5v-20.3h2.8L138.3,179L138.3,179z"/>
<path class="st1" d="M144.1,183.4v-21.1h-3.4v-3.4h10.5v3.4h-3.4v21.1H144.1z"/>
<path class="st1" d="M156.3,183.4v-21.9h-3.7v-2.6h10.1v2.6H159v21.9H156.3z"/>
<path class="st1" d="M172.8,158.8v2h-5.3v9.1h5.1v2h-5.1v9.6h5.4v2h-7.5V159L172.8,158.8z"/>
<path class="st1" d="M186.6,175v8.3h-3.7V175c0-1.1-0.5-1.6-1.6-1.6h-1.7v9.8h-3.7v-24.5h6.1c3,0,4.6,1.5,4.6,4.6v4.6
	c0,2.2-0.8,3.2-2.1,3.8C186,172.2,186.6,173.2,186.6,175z M181.4,162.2h-1.8v8.1h1.7c1,0,1.5-0.5,1.5-1.5v-5.2
	c0.1-0.7-0.3-1.3-1-1.4C181.7,162.2,181.6,162.2,181.4,162.2z"/>
<path class="st1" d="M7.7,221.4l-4.6-12v12H0.3v-24.5h2.8v11.9l4.8-11.9h3l-5,12l4.9,12.5H7.7z"/>
<path class="st1" d="M20,221.4l-3.8-16.5v4.3v12.2h-3.3v-24.5h4.4l3.5,15.1v-4.1v-11h3.4v24.5H20z"/>
<path class="st1" d="M29.6,221.4h-2.1v-24.5h2.1V221.4z"/>
<path class="st1" d="M41.3,196.9v3.4h-4.4v7.1h4.2v3.4h-4.2v10.6h-3.8v-24.5H41.3z"/>
<path class="st1" d="M52.1,196.9v3.4h-4.6v6.9h4.4v3.4h-4.4v7.4h4.7v3.4h-8.4v-24.5L52.1,196.9z"/>
<path class="st1" d="M63,221.4v-21.9h-3.7v-2.6h10.2v2.6h-3.7v21.9H63z"/>
<path class="st1" d="M79,207.2v-10.3h3.8v24.5H79v-10.8h-3.6v10.8h-3.8v-24.5h3.8v10.3H79z"/>
<path class="st1" d="M95.7,213.1v8.3h-2.8v-8.1c0.2-1-0.5-2-1.5-2.1c-0.2,0-0.4,0-0.6,0h-2.1v10.3h-2.8V197h5.2
	c3.1,0,4.6,1.5,4.6,4.6v4.6c0,2.2-0.8,3.3-2.2,3.9C95,210.2,95.7,211.2,95.7,213.1z M91,199.4h-2.3v9.2h2.1c1,0.2,1.9-0.5,2.1-1.5
	c0-0.2,0-0.4,0-0.6v-5.2c0.1-0.9-0.4-1.7-1.3-1.9C91.3,199.4,91.2,199.4,91,199.4z"/>
<path class="st1" d="M105.2,221.6h-2c-3,0-4.6-1.5-4.6-4.6v-15.8c0-3,1.5-4.6,4.6-4.6h2c3.1,0,4.6,1.5,4.6,4.6V217
	C109.8,220.1,108.3,221.6,105.2,221.6z M104.6,200h-0.8c-0.7-0.1-1.3,0.4-1.4,1c0,0.1,0,0.3,0,0.4v15.5c-0.1,0.7,0.4,1.3,1,1.4
	c0.1,0,0.3,0,0.4,0h0.8c0.9,0,1.4-0.4,1.4-1.4v-15.5C106,200.4,105.6,199.9,104.6,200L104.6,200z"/>
<path class="st1" d="M122.8,217c0,3.1-1.5,4.6-4.6,4.6h-0.9c-3,0-4.6-1.5-4.6-4.6v-20.2h2.8v20.3c-0.1,0.9,0.5,1.7,1.3,1.9
	c0.2,0,0.3,0,0.5,0h0.7c0.9,0.1,1.7-0.5,1.9-1.3c0-0.2,0-0.3,0-0.5v-20.3h2.8L122.8,217L122.8,217z"/>
<path class="st1" d="M131.1,210.6v-2h4.8v8.7c0,2.8-1.4,4.3-4.3,4.3h-1.1c-2.9,0-4.3-1.5-4.3-4.3v-16.4c0-2.8,1.4-4.3,4.3-4.3h1.1
	c2.8,0,4.2,1.5,4.2,4.2v3.6h-2.1v-3.6c0.1-1.1-0.6-2.1-1.7-2.2c-0.2,0-0.4,0-0.6,0h-0.9c-1.1-0.2-2.1,0.6-2.3,1.7c0,0.2,0,0.4,0,0.5
	v16.5c-0.1,1.1,0.6,2.1,1.7,2.2c0.2,0,0.4,0,0.5,0h1c1.1,0.1,2.1-0.6,2.2-1.7c0-0.2,0-0.3,0-0.5v-6.7H131.1z"/>
<path class="st1" d="M146.5,207.2v-10.3h3.8v24.5h-3.8v-10.8h-3.6v10.8h-3.8v-24.5h3.8v10.3H146.5z"/>
<path class="st1" d="M164.9,221.4l-0.6-4.1h-4.5l-0.6,4.1h-2.7l3.8-24.6h3.6l3.8,24.6H164.9z M160.1,214.7h3.8l-1.9-13.6
	L160.1,214.7z"/>
<path class="st1" d="M10,250.7v4.1c0,3.1-1.5,4.6-4.6,4.6H0.3v-24.5h5.1c3,0,4.6,1.5,4.6,4.6v3.6c0,2.2-0.7,3.3-2.1,3.8
	C9.2,247.4,10,248.5,10,250.7z M5.3,237.4H3v8.2h2.1c1,0.2,1.9-0.5,2.1-1.5c0-0.2,0-0.3,0-0.5v-4.3c0.2-0.9-0.4-1.7-1.3-1.9
	C5.7,237.4,5.5,237.4,5.3,237.4L5.3,237.4z M3,256.8h2.3c0.9,0.1,1.7-0.5,1.9-1.3c0-0.2,0-0.3,0-0.5v-4.8c0.2-1-0.5-1.9-1.5-2.1
	c-0.2,0-0.4,0-0.6,0H3V256.8z"/>
<path class="st1" d="M23.9,255c0,3-1.5,4.5-4.6,4.5h-1.8c-3,0-4.6-1.5-4.6-4.5v-20.2h3.8v20c-0.1,0.7,0.3,1.3,1,1.4
	c0.1,0,0.3,0,0.4,0h0.6c0.9,0,1.4-0.4,1.4-1.4v-20h3.7V255H23.9z"/>
<path class="st1" d="M36.9,251.1v8.3h-2.8v-8.1c0.2-1-0.5-2-1.5-2.1c-0.2,0-0.4,0-0.6,0h-2.1v10.3H27V235h5.2c3,0,4.5,1.5,4.5,4.6
	v4.6c0,2.2-0.8,3.3-2.2,3.9C36.2,248.2,36.9,249.2,36.9,251.1z M32.2,237.4h-2.3v9.2H32c1,0.1,1.9-0.6,2-1.6c0-0.2,0-0.3,0-0.5v-5.2
	c0.1-0.9-0.5-1.7-1.3-1.8C32.5,237.4,32.3,237.4,32.2,237.4L32.2,237.4z"/>
<path class="st1" d="M49.6,251.2v8.2h-2.1v-8.2c0-1.8-0.8-2.6-2.6-2.6h-2.4v10.7h-2.1v-24.5h4.9c2.9,0,4.3,1.4,4.3,4.3v4.7
	c0,2.3-0.9,3.3-2.3,3.9C48.8,248.1,49.6,249.1,49.6,251.2z M45.2,236.8h-2.7v9.9h2.4c1.2,0.2,2.4-0.6,2.6-1.8c0-0.2,0-0.4,0-0.7V239
	C47.5,237.5,46.8,236.8,45.2,236.8L45.2,236.8z"/>
<path class="st1" d="M64.3,259.4h-3.7l-0.5-3.9h-3.9l-0.5,3.9h-3.5l3.5-24.5h5L64.3,259.4z M56.7,252.2h3l-1.5-12.4L56.7,252.2z"/>
<path class="st1" d="M68.8,259.4v-20.1h-3v-4.4h10.9v4.4h-3v20.1H68.8z"/>
<path class="st1" d="M90.1,259.4h-3.7l-0.5-3.9H82l-0.4,3.9h-3.4l3.5-24.5h5L90.1,259.4z M82.5,252.2h3.1L84,239.8L82.5,252.2z"/>
<path class="st1" d="M97.3,259.4h-5.6v-6.9h5.6V259.4z"/>
<path class="st1" d="M114.8,259.4h-2l-0.7-4.6h-5.2l-0.7,4.6h-2l4.1-24.6h2.5L114.8,259.4z M107.1,252.8h4.6l-2.3-14.5L107.1,252.8z
	"/>
<path class="st1" d="M120.3,240.2v19.2h-2.7v-24.5h3.9l4.1,17.7v-17.7h2.7v24.5h-3.5L120.3,240.2z"/>
<path class="st1" d="M131.4,234.9h5.6c3.6,0,5.4,1.8,5.4,5.4v13.8c0,3.6-1.7,5.4-5.4,5.4h-5.6V234.9z M135.1,256.1h1.4
	c1.5,0,2.1-0.7,2.1-2.2v-13.6c0-1.5-0.7-2.2-2.1-2.2h-1.4V256.1z"/>
<path class="st1" d="M155.4,255c0,3-1.4,4.4-4.4,4.4h-1.3v-2h1.2c1.7,0,2.3-0.7,2.3-2.5v-20.1h2.1L155.4,255L155.4,255z"/>
<path class="st1" d="M169.6,255c0,3-1.5,4.5-4.6,4.5h-1.8c-3,0-4.6-1.5-4.6-4.5v-20.2h3.8v20c-0.1,0.7,0.3,1.3,1,1.4
	c0.1,0,0.3,0,0.4,0h0.6c0.9,0,1.4-0.4,1.4-1.4v-20h3.7L169.6,255z"/>
<path class="st1" d="M182.4,251.5v3.6c0,3-1.5,4.6-4.6,4.6H177c-3,0-4.5-1.5-4.5-4.5v-5.1h2.7v5.2c-0.1,0.9,0.5,1.7,1.3,1.9
	c0.2,0,0.3,0,0.5,0h0.6c0.9,0.1,1.7-0.4,1.9-1.3c0-0.2,0-0.3,0-0.5v-3.7c0.1-0.9-0.4-1.9-1.2-2.3l-3.4-2.5c-1.6-0.9-2.5-2.7-2.4-4.6
	v-2.9c0-3.1,1.5-4.6,4.6-4.6h0.7c3,0,4.5,1.5,4.5,4.5v4.5h-2.7v-4.5c0.1-0.9-0.5-1.7-1.3-1.9c-0.2,0-0.3,0-0.5,0h-0.5
	c-0.9-0.1-1.7,0.5-1.9,1.4c0,0.2,0,0.3,0,0.5v3.1c-0.1,1,0.4,1.9,1.3,2.3l3.4,2.4C181.7,247.9,182.6,249.6,182.4,251.5z"/>
<path class="st1" d="M188,259.4v-21.1h-3.4v-3.4h10.5v3.4h-3.4v21.1H188z"/>
<path class="st1" d="M3.1,272.9v21.9h4.6v2.6H0.3v-24.5H3.1z"/>
<path class="st1" d="M13.3,297.4h-2.8v-24.5h2.8V297.4z"/>
<path class="st1" d="M23.9,297.4l-3.6-12v12h-3.7v-24.5h3.7v11.8l3.9-11.8H28l-4.2,12l4.1,12.5H23.9z"/>
<path class="st1" d="M38.2,272.9v3.4h-4.6v6.9H38v3.4h-4.4v7.4h4.7v3.4h-8.4v-24.5L38.2,272.9z"/>
<path class="st1" d="M49.1,297.4v-21.9h-3.7v-2.6h10.2v2.6h-3.7v21.9H49.1z"/>
<path class="st1" d="M65.7,283.9v-11h2.1v24.5h-2.1v-11.5h-5.4v11.5h-2.1v-24.5h2.1v11H65.7z"/>
<path class="st1" d="M79.1,272.9v2.6h-4.9v8.1H79v2.6h-4.8v8.6h5v2.6h-7.8v-24.5L79.1,272.9z"/>
<path class="st1" d="M96.5,289.1v4c0,3-1.5,4.5-4.6,4.5h-1.6c-3,0-4.5-1.5-4.5-4.5v-5.2h3.6v5c0,0.9,0.5,1.4,1.4,1.4h0.5
	c1,0,1.4-0.5,1.4-1.4v-3.3c0.1-0.8-0.3-1.6-1-2l-3.8-2.8c-1.5-0.9-2.4-2.5-2.2-4.2v-3.4c0-3,1.5-4.5,4.6-4.5h1.6
	c3,0,4.5,1.5,4.5,4.5v4.4h-3.7v-4.3c0.1-0.7-0.4-1.3-1-1.4c-0.1,0-0.2,0-0.4,0h-0.5c-0.7-0.1-1.3,0.4-1.4,1c0,0.1,0,0.2,0,0.4v2.7
	c-0.1,0.8,0.3,1.6,1.1,2l3.8,2.8C95.8,285.7,96.6,287.3,96.5,289.1z"/>
<path class="st1" d="M102.1,297.4v-21.9h-3.7v-2.6h10.2v2.6h-3.7v21.9H102.1z"/>
<path class="st1" d="M121.5,289.1v8.3h-3.8v-8.3c0-1.1-0.5-1.6-1.6-1.6h-1.7v9.8h-3.8v-24.5h6.2c3,0,4.6,1.5,4.6,4.5v4.6
	c0,2.2-0.8,3.2-2.1,3.8C120.9,286.2,121.5,287.2,121.5,289.1z M116.3,276.2h-1.8v8.1h1.7c1,0,1.5-0.5,1.5-1.5v-5.2
	c0.1-0.7-0.4-1.3-1-1.4C116.5,276.2,116.4,276.2,116.3,276.2L116.3,276.2z"/>
<path class="st1" d="M132.3,272.9v2.6h-4.9v8.1h4.7v2.6h-4.7v8.6h5v2.6h-7.8v-24.5L132.3,272.9z"/>
<path class="st1" d="M143.5,272.9v3.4h-4.6v6.9h4.4v3.4h-4.4v7.4h4.7v3.4h-8.4v-24.5L143.5,272.9z"/>
<path class="st1" d="M149.4,297.4v-22.5h-3.9v-2h9.8v2h-3.9v22.5H149.4z"/>
<path class="st1" d="M165.5,297.4h-2.8v-24.5h2.8V297.4z"/>
<path class="st1" d="M171.3,297.4v-21.1h-3.4v-3.4h10.5v3.4H175v21.1H171.3z"/>
<path class="st1" d="M185.1,285.8v3.2h-6.5v-3.2H185.1z"/>
<path class="st1" d="M10,327.5v3.6c0,3-1.5,4.5-4.6,4.5H4.7c-3,0-4.5-1.5-4.5-4.5V326h2.7v5.2c-0.1,0.9,0.4,1.7,1.3,1.9
	c0.2,0,0.3,0,0.5,0h0.6c0.9,0.1,1.7-0.5,1.9-1.3c0-0.2,0-0.3,0-0.5v-3.7c0.1-1-0.4-1.9-1.2-2.4l-3.4-2.5c-1.6-0.9-2.5-2.7-2.3-4.5
	v-2.9c0-3,1.5-4.5,4.6-4.5h0.7c3,0,4.5,1.5,4.5,4.5v4.4H7.2v-4.5c0.1-0.9-0.5-1.7-1.4-1.9c-0.2,0-0.3,0-0.5,0H4.8
	c-0.9-0.1-1.7,0.5-1.8,1.4c0,0.1,0,0.3,0,0.5v3.1c-0.1,1,0.4,1.9,1.3,2.3l3.4,2.5C9.2,323.9,10.2,325.6,10,327.5z"/>
<path class="st1" d="M20.8,310.9v2h-5.3v9.1h5.1v2h-5.1v9.5h5.4v2h-7.5V311L20.8,310.9z"/>
<path class="st1" d="M27.6,310.9V332h4.1v3.4h-7.9v-24.5H27.6z"/>
<path class="st1" d="M41.9,310.9v2.6h-4.7v8.2h4.5v2.6h-4.5v11.2h-2.8V311h7.5V310.9z"/>
<path class="st1" d="M44.9,334c0.1,1.2-0.2,2.3-0.9,3.2l-0.7,1.2l-1.1-0.3l0.4-0.9c0.3-0.6,0.5-1.2,0.6-1.8h-1v-4.1h2.7V334z"/>
<path class="st1" d="M55.5,335.4v-21.9h-3.7v-2.6H62v2.6h-3.7v21.9H55.5z"/>
<path class="st1" d="M71.5,321.2v-10.3h3.8v24.5h-3.8v-10.8h-3.6v10.8h-3.8v-24.5h3.8v10.3L71.5,321.2z"/>
<path class="st1" d="M86.1,310.9v2h-5.3v9.1h5.1v2h-5.1v9.5h5.3v2h-7.4V311L86.1,310.9z"/>
<path class="st1" d="M97.1,335.4h-2.8v-24.5h4.8c3,0,4.6,1.5,4.6,4.5v6.2c0,3-1.5,4.5-4.6,4.5h-2V335.4z M99,313.5h-1.9v10.1H99
	c0.9,0.1,1.7-0.5,1.9-1.3c0-0.2,0-0.3,0-0.5v-6.4c0.1-0.9-0.5-1.7-1.3-1.9C99.3,313.4,99.2,313.4,99,313.5z"/>
<path class="st1" d="M114.3,310.9v2H109v9.1h5.1v2H109v9.5h5.3v2h-7.4V311L114.3,310.9z"/>
<path class="st1" d="M123.9,335.6h-2c-3,0-4.6-1.5-4.6-4.5v-15.8c0-3,1.5-4.5,4.6-4.5h2c3,0,4.5,1.5,4.5,4.5v15.8
	C128.4,334.1,126.9,335.6,123.9,335.6z M123.3,314h-0.8c-0.7-0.1-1.3,0.4-1.4,1c0,0.1,0,0.3,0,0.4v15.5c-0.1,0.7,0.3,1.3,1,1.4
	c0.1,0,0.3,0,0.4,0h0.8c1,0,1.4-0.5,1.4-1.4v-15.5C124.7,314.4,124.2,314,123.3,314z"/>
<path class="st1" d="M134.3,335.4h-2.8v-24.5h4.8c3,0,4.6,1.5,4.6,4.5v6.2c0,3-1.5,4.5-4.6,4.5h-2V335.4z M136.2,313.5h-1.9v10.1
	h1.9c0.9,0.1,1.7-0.5,1.9-1.3c0-0.2,0-0.3,0-0.5v-6.4c0.1-0.9-0.5-1.7-1.3-1.9C136.6,313.4,136.4,313.4,136.2,313.5z"/>
<path class="st1" d="M147.4,310.9V332h4.1v3.4h-7.9v-24.5H147.4z"/>
<path class="st1" d="M161.8,310.9v2.6h-4.9v8.1h4.7v2.6h-4.7v8.6h5v2.6h-7.8v-24.5L161.8,310.9L161.8,310.9z"/>
<path class="st1" d="M169.6,333.8c0,2.9-0.6,3.8-2.4,5.4l-1.4,1.2l-1.8-0.8l0.6-0.9c1.1-1.6,1.3-2.3,1.3-3.3H164v-6.9h5.6V333.8z"/>
<path class="st1" d="M9.7,365.7v3.7c0,2.8-1.4,4.2-4.3,4.2H4.6c-2.8,0-4.3-1.4-4.3-4.2v-5h2.1v5.1c0,1.5,0.8,2.2,2.3,2.2h0.6
	c1.5,0,2.3-0.7,2.3-2.2v-3.7c0.1-1.1-0.5-2.1-1.4-2.7l-3.6-2.7c-1.5-0.9-2.3-2.6-2.2-4.4v-3c0-2.8,1.4-4.2,4.3-4.2h0.7
	c2.8,0,4.3,1.4,4.3,4.2v4.3H7.6v-4.4c0-1.5-0.7-2.2-2.3-2.2H4.8c-1.5,0-2.3,0.7-2.3,2.2v3.1c0,1,0.5,2,1.4,2.6l3.6,2.7
	C9,362.2,9.9,363.9,9.7,365.7z"/>
<path class="st1" d="M20.4,359.6v-10.7h2.8v24.5h-2.8v-11.2h-4.6v11.2H13v-24.5h2.8v10.7H20.4z"/>
<path class="st1" d="M32.1,373.6H31c-3,0-4.5-1.5-4.5-4.5v-15.8c0-3,1.5-4.5,4.5-4.5h1c3,0,4.5,1.5,4.5,4.5v15.8
	C36.6,372.1,35.1,373.6,32.1,373.6z M32,351.2h-0.8c-0.9-0.1-1.7,0.5-1.9,1.3c0,0.2,0,0.3,0,0.5v16.1c-0.1,0.9,0.5,1.7,1.4,1.9
	c0.2,0,0.3,0,0.5,0H32c0.9,0.1,1.7-0.5,1.9-1.3c0-0.2,0-0.3,0-0.5v-16.1c0.1-0.9-0.4-1.7-1.3-1.9C32.3,351.2,32.2,351.2,32,351.2z"
	/>
<path class="st1" d="M43.5,373.4h-3.7v-24.5h5.9c3,0,4.5,1.5,4.5,4.5v6.5c0,3-1.5,4.5-4.5,4.5h-2.1v9H43.5z M45,352.2h-1.5v9H45
	c1,0,1.4-0.5,1.4-1.4v-6.2C46.4,352.6,46,352.2,45,352.2z"/>
<path class="st1" d="M62.6,365.5v3.6c0,3-1.5,4.5-4.5,4.5h-0.8c-3,0-4.5-1.5-4.5-4.5V364h2.7v5.2c-0.1,0.9,0.5,1.7,1.3,1.9
	c0.2,0,0.3,0,0.5,0H58c0.9,0.1,1.7-0.5,1.9-1.3c0-0.2,0-0.3,0-0.5v-3.7c0.1-1-0.4-1.9-1.2-2.3l-3.4-2.5c-1.6-0.9-2.5-2.7-2.3-4.5
	v-2.9c0-3,1.5-4.5,4.5-4.5h0.7c3,0,4.5,1.5,4.5,4.5v4.4h-2.8v-4.5c0.1-0.9-0.5-1.7-1.3-1.9c-0.2,0-0.3,0-0.5,0h-0.5
	c-0.9-0.1-1.7,0.5-1.9,1.3c0,0.2,0,0.3,0,0.5v3.1c-0.1,1,0.4,1.9,1.3,2.3l3.4,2.5C61.9,361.9,62.8,363.7,62.6,365.5z"/>
<path class="st1" d="M68.9,371.6c0.1,1.5-0.3,3-1.3,4.1l-0.8,1.2l-1.4-0.4l0.5-1c0.3-0.7,0.6-1.4,0.8-2.2h-1.2v-4.6H69L68.9,371.6
	L68.9,371.6z"/>
<path class="st1" d="M87.8,373.4h-3.7l-0.5-3.8h-3.9l-0.5,3.9h-3.5l3.5-24.5h5L87.8,373.4z M80.1,366.2h3l-1.5-12.4L80.1,366.2z"/>
<path class="st1" d="M92.9,354.2v19.2h-2.7v-24.5H94l4.1,17.7v-17.7h2.7v24.5h-3.5L92.9,354.2z"/>
<path class="st1" d="M104.4,348.9h4.3c3.5,0,5.2,1.7,5.2,5.2v14.1c0,3.5-1.7,5.2-5.2,5.2h-4.3V348.9z M106.5,371.4h2.1
	c2.2,0,3.2-1,3.2-3.2v-14.1c0-2.2-1-3.3-3.2-3.3h-2.1V371.4z"/>
<path class="st1" d="M132.9,365.1v8.3h-3.8v-8.3c0-1.1-0.5-1.6-1.6-1.6h-1.7v9.8H122v-24.5h6.2c3.1,0,4.6,1.5,4.6,4.5v4.6
	c0,2.2-0.8,3.2-2.1,3.8C132.3,362.3,132.9,363.2,132.9,365.1z M127.7,352.2h-1.8v8.1h1.7c1,0,1.5-0.5,1.5-1.5v-5.2
	c0.1-0.7-0.4-1.3-1.1-1.4C127.9,352.2,127.8,352.2,127.7,352.2z"/>
<path class="st1" d="M143.7,348.9v2.6h-4.9v8.1h4.7v2.6h-4.7v8.6h5v2.6H136v-24.5L143.7,348.9L143.7,348.9z"/>
<path class="st1" d="M157.1,365.1v4c0,3-1.5,4.5-4.6,4.5H151c-3.1,0-4.5-1.5-4.5-4.5v-5.2h3.6v5c0,0.9,0.5,1.4,1.4,1.4h0.4
	c1,0,1.4-0.5,1.4-1.4v-3.3c0.1-0.8-0.4-1.6-1.1-2l-3.8-2.8c-1.5-0.9-2.3-2.5-2.2-4.2v-3.4c0-3,1.5-4.5,4.6-4.5h1.6
	c3,0,4.5,1.5,4.5,4.5v4.4h-3.7v-4.3c0.1-0.7-0.4-1.3-1-1.4c-0.1,0-0.2,0-0.4,0h-0.5c-0.7-0.1-1.3,0.4-1.4,1c0,0.1,0,0.2,0,0.4v2.7
	c-0.1,0.8,0.3,1.6,1,2l3.8,2.8C156.4,361.7,157.3,363.3,157.1,365.1z"/>
<path class="st1" d="M162.8,373.4v-21.9h-3.7v-2.6h10.1v2.6h-3.7v21.9H162.8z"/>
<path class="st1" d="M177.9,373.4l-0.6-4.1h-4.5l-0.6,4.1h-2.7l3.8-24.6h3.6l3.8,24.6H177.9z M173.1,366.8h3.8l-1.9-13.6
	L173.1,366.8z"/>
<path class="st1" d="M193.9,369.1c0,3-1.5,4.5-4.6,4.5h-1.8c-3,0-4.6-1.5-4.6-4.5v-20.2h3.7v20c-0.1,0.7,0.4,1.3,1,1.4
	c0.1,0,0.3,0,0.4,0h0.6c1,0,1.4-0.5,1.4-1.4v-20h3.8L193.9,369.1z"/>
<path class="st1" d="M202.7,361.8v3.2h-6.5v-3.2H202.7z"/>
<path class="st1" d="M10.8,403.1v8.3H7.1v-8.3c0-1.1-0.5-1.6-1.6-1.6H3.8v9.8H0.1v-24.5h6.2c3,0,4.6,1.5,4.6,4.5v4.6
	c0,2.2-0.8,3.2-2.1,3.8C10.2,400.3,10.8,401.2,10.8,403.1z M5.6,390.2H3.8v8.1h1.7c1,0,1.5-0.5,1.5-1.5v-5.2
	c0.1-0.7-0.4-1.3-1.1-1.4C5.9,390.2,5.7,390.2,5.6,390.2z"/>
<path class="st1" d="M21.5,411.4l-0.6-4.1h-4.5l-0.6,4.1h-2.7l3.8-24.6h3.6l3.8,24.6H21.5z M16.8,404.8h3.8l-1.9-13.6L16.8,404.8z"
	/>
<path class="st1" d="M33.8,411.4L30,394.9v4.3v12.2h-3.3v-24.5h4.4l3.5,15.1v-4.1v-11H38v24.5H33.8z"/>
<path class="st1" d="M44,411.4v-22.5h-3.8v-2H50v2h-3.9v22.5H44z"/>
<path class="st1" d="M63.6,402.6v4.5c0,3-1.5,4.5-4.5,4.5h-2.7c-3,0-4.5-1.5-4.5-4.5v-5.2h4.8v4.7c-0.1,0.4,0.2,0.8,0.6,0.9
	c0.1,0,0.2,0,0.2,0H58c0.4,0.1,0.8-0.2,0.9-0.6c0-0.1,0-0.2,0-0.2v-2.9c0-0.6-0.3-1.2-0.8-1.6l-4.2-3.1c-1.3-0.8-2.1-2.3-2-3.9v-3.9
	c0-3,1.5-4.5,4.5-4.5H59c3,0,4.5,1.5,4.5,4.5v4.5h-4.8v-4c0.1-0.4-0.2-0.8-0.6-0.9c-0.1,0-0.2,0-0.2,0h-0.4
	c-0.4-0.1-0.8,0.2-0.9,0.6c0,0.1,0,0.2,0,0.2v2.3c0,0.6,0.3,1.3,0.8,1.6l4.2,3.1C63,399.5,63.8,401,63.6,402.6z"/>
<path class="st1" d="M77.2,411.6h-1c-3,0-4.6-1.5-4.6-4.5v-15.8c0-3,1.5-4.5,4.6-4.5h1c3,0,4.6,1.5,4.6,4.5v15.8
	C81.8,410.1,80.3,411.6,77.2,411.6z M77.1,389.2h-0.8c-0.9-0.1-1.7,0.4-1.8,1.3c0,0.2,0,0.3,0,0.5v16.1c-0.1,0.9,0.5,1.7,1.3,1.9
	c0.2,0,0.3,0,0.5,0h0.8c0.9,0.1,1.7-0.5,1.9-1.4c0-0.2,0-0.3,0-0.5V391c0.1-0.9-0.5-1.7-1.3-1.9C77.5,389.2,77.3,389.2,77.1,389.2
	L77.1,389.2z"/>
<path class="st1" d="M93,386.9v3.4h-4.4v7.1h4.2v3.4h-4.2v10.6h-3.7v-24.5H93z"/>
<path class="st1" d="M108.4,386.9v2h-5.3v9.1h5.1v2h-5.1v9.5h5.3v2H101V387L108.4,386.9z"/>
<path class="st1" d="M122.8,411.4H119l-0.5-3.9h-3.9l-0.4,3.9h-3.5l3.5-24.5h5L122.8,411.4z M115.1,404.2h3l-1.5-12.4L115.1,404.2z"
	/>
<path class="st1" d="M134.9,403.5v3.6c0,3-1.5,4.5-4.6,4.5h-0.8c-3,0-4.5-1.5-4.5-4.5V402h2.7v5.2c-0.1,0.9,0.5,1.7,1.3,1.9
	c0.2,0,0.3,0,0.5,0h0.6c0.9,0.1,1.7-0.4,1.9-1.3c0-0.2,0-0.3,0-0.5v-3.7c0.1-0.9-0.4-1.9-1.2-2.3l-3.4-2.5c-1.6-0.9-2.5-2.7-2.3-4.5
	v-2.9c0-3,1.5-4.5,4.6-4.5h0.7c3,0,4.5,1.5,4.5,4.5v4.4h-2.7v-4.5c0.1-0.9-0.5-1.7-1.3-1.9c-0.2,0-0.3,0-0.5,0h-0.5
	c-0.9-0.1-1.7,0.5-1.9,1.3c0,0.2,0,0.3,0,0.5v3.1c-0.1,1,0.4,1.9,1.3,2.3l3.4,2.5C134.1,399.9,135,401.7,134.9,403.5z"/>
<path class="st1" d="M140.4,411.4v-21.9h-3.7v-2.6h10.2v2.6h-3.7v21.9H140.4z"/>
<path class="st1" d="M3.8,449.4H0.1v-24.5H6c3.1,0,4.6,1.5,4.6,4.5v6.5c0,3-1.5,4.5-4.6,4.5H3.8V449.4z M5.4,428.2H3.8v9h1.5
	c0.9,0,1.4-0.5,1.4-1.4v-6.2c0.1-0.7-0.4-1.3-1.1-1.4C5.6,428.2,5.5,428.2,5.4,428.2L5.4,428.2z"/>
<path class="st1" d="M20.9,449.4l-0.6-4.1h-4.5l-0.6,4.1h-2.7l3.8-24.6h3.6l3.8,24.6H20.9z M16.1,442.8H20l-2-13.6L16.1,442.8z"/>
<path class="st1" d="M36.7,441.1v4c0,3-1.5,4.5-4.5,4.5h-1.6c-3,0-4.5-1.5-4.5-4.5v-5.2h3.6v5c0,0.9,0.5,1.4,1.4,1.4h0.5
	c1,0,1.4-0.5,1.4-1.4v-3.3c0.1-0.8-0.3-1.6-1-2l-3.8-2.8c-1.5-0.9-2.3-2.5-2.2-4.2v-3.4c0-3,1.5-4.5,4.5-4.5H32c3,0,4.5,1.5,4.5,4.5
	v4.5h-3.7v-4.3c0.1-0.7-0.4-1.3-1-1.4c-0.1,0-0.2,0-0.4,0h-0.5c-0.7-0.1-1.3,0.4-1.4,1c0,0.1,0,0.2,0,0.4v2.7c-0.1,0.8,0.3,1.6,1,2
	l3.8,2.8C36,437.7,36.8,439.4,36.7,441.1z"/>
<path class="st1" d="M49,441.7v3.7c0,2.8-1.4,4.2-4.3,4.2H44c-2.8,0-4.3-1.4-4.3-4.2v-5h2.1v5.1c0,1.5,0.8,2.2,2.3,2.2h0.6
	c1.5,0,2.3-0.7,2.3-2.2v-3.7c0.1-1.1-0.5-2.1-1.4-2.7l-3.6-2.7c-1.5-0.9-2.3-2.6-2.2-4.4v-3c0-2.8,1.4-4.2,4.3-4.2h0.7
	c2.8,0,4.3,1.4,4.3,4.2v4.3H47v-4.4c0-1.5-0.7-2.2-2.3-2.2h-0.5c-1.5,0-2.3,0.7-2.3,2.2v3.1c-0.1,1.1,0.5,2.1,1.4,2.7l3.6,2.7
	C48.3,438.3,49.1,440,49,441.7z"/>
<path class="st1" d="M59,440.7v8.7h-3.7v-8.3l-4-16.2h3.8l2.1,10.4l2.2-10.4H63L59,440.7z"/>
<path class="st1" d="M75.1,445.1c0,3-1.5,4.5-4.6,4.5h-0.9c-3,0-4.6-1.5-4.6-4.5v-20.2h2.8v20.3c-0.1,0.9,0.5,1.7,1.3,1.9
	c0.2,0,0.3,0,0.5,0h0.7c0.9,0.1,1.7-0.5,1.9-1.3c0-0.2,0-0.3,0-0.5V425H75L75.1,445.1z"/>
<path class="st1" d="M85.4,449.4l-3.8-16.5v4.3v12.2h-3.3v-24.5h4.4l3.5,15.1v-4.1v-11h3.4v24.5H85.4z"/>
<path class="st1" d="M100,449.4l-4.6-12v12h-2.8v-24.5h2.8v11.9l4.8-11.9h3l-5,12l4.9,12.5H100z"/>
<path class="st1" d="M110.1,424.9h5.6c3.6,0,5.4,1.8,5.4,5.4v13.8c0,3.6-1.7,5.4-5.4,5.4h-5.6V424.9z M113.8,446.1h1.4
	c1.5,0,2.1-0.7,2.1-2.2v-13.6c0-1.5-0.7-2.2-2.1-2.2h-1.4V446.1z"/>
<path class="st1" d="M131.9,424.9v2.6H127v8.1h4.7v2.6H127v8.6h5v2.6h-7.8v-24.5L131.9,424.9z"/>
<path class="st1" d="M142.9,424.9v3.4h-4.4v7.1h4.2v3.4h-4.2v10.6h-3.7v-24.5H142.9z"/>
<path class="st1" d="M148.5,449.4h-2.8v-24.5h2.8V449.4z"/>
<path class="st1" d="M158.8,449.4l-3.8-16.5v4.3v12.2h-3.4v-24.5h4.4l3.5,15.1v-4.1v-11h3.4v24.5H158.8z"/>
<path class="st1" d="M169.6,449.4h-3.8v-24.5h3.8V449.4z"/>
<path class="st1" d="M175.5,449.4v-21.9h-3.7v-2.6h10.1v2.6h-3.7v21.9H175.5z"/>
<path class="st1" d="M192.4,424.9v3.4h-4.6v6.9h4.4v3.3h-4.4v7.4h4.6v3.4H184v-24.5L192.4,424.9z"/>
<path class="st1" d="M201,437.8v3.2h-6.5v-3.2H201z"/>
<path class="st1" d="M3.1,462.9v21.9h4.6v2.6H0.3v-24.5H3.1z"/>
<path class="st1" d="M17.1,478.7v8.7h-3.7v-8.3l-4-16.2h3.9l2.1,10.4l2.2-10.4h3.6L17.1,478.7z"/>
<path class="st1" d="M37.8,479.5v3.6c0,3-1.5,4.5-4.5,4.5h-0.8c-3,0-4.5-1.5-4.5-4.5V478h2.7v5.2c-0.1,0.9,0.5,1.7,1.3,1.9
	c0.2,0,0.3,0,0.5,0h0.6c0.9,0.1,1.7-0.5,1.8-1.4c0-0.2,0-0.3,0-0.5v-3.6c0.1-1-0.4-1.9-1.2-2.3l-3.4-2.5c-1.6-1-2.5-2.7-2.3-4.6
	v-2.9c0-3,1.5-4.5,4.5-4.5h0.7c3,0,4.5,1.5,4.5,4.5v4.4H35v-4.5c0.1-0.9-0.5-1.7-1.3-1.9c-0.2,0-0.3,0-0.5,0h-0.5
	c-0.9-0.1-1.7,0.5-1.9,1.3c0,0.2,0,0.3,0,0.5v3.1c-0.1,1,0.4,1.9,1.3,2.3l3.4,2.5C37.1,475.9,38,477.7,37.8,479.5z"/>
<path class="st1" d="M43.4,487.4v-21.9h-3.7v-2.6h10.2v2.6h-3.7v21.9H43.4z"/>
<path class="st1" d="M63.3,487.4h-3.7l-0.5-3.8h-3.9l-0.5,3.9h-3.5l3.5-24.5h5L63.3,487.4z M55.7,480.3h3l-1.5-12.4L55.7,480.3z"/>
<path class="st1" d="M68.4,468.2v19.2h-2.7v-24.5h3.8l4.1,17.7v-17.7h2.7v24.5h-3.5L68.4,468.2z"/>
<path class="st1" d="M80,462.9h4.3c3.5,0,5.2,1.7,5.2,5.2v14.1c0,3.5-1.7,5.2-5.2,5.2H80V462.9z M82.1,485.5h2.1
	c2.2,0,3.2-1,3.2-3.2v-14.1c0-2.2-1.1-3.2-3.2-3.2h-2.1V485.5z"/>
<path class="st1" d="M104.2,487.6h-2c-3,0-4.6-1.5-4.6-4.5v-15.8c0-3,1.5-4.5,4.6-4.5h2c3,0,4.6,1.5,4.6,4.5v15.8
	C108.7,486.1,107.2,487.6,104.2,487.6z M103.6,466h-0.8c-0.7-0.1-1.3,0.3-1.4,1c0,0.1,0,0.3,0,0.4v15.5c-0.1,0.7,0.4,1.3,1,1.4
	c0.1,0,0.3,0,0.4,0h0.8c0.9,0,1.4-0.5,1.4-1.4v-15.4c0.1-0.7-0.3-1.3-1-1.4C103.8,466,103.7,466,103.6,466L103.6,466z"/>
<path class="st1" d="M121.7,483.1c0,3-1.5,4.5-4.6,4.5h-0.9c-3,0-4.6-1.5-4.6-4.5v-20.2h2.8v20.3c-0.1,0.9,0.5,1.7,1.3,1.9
	c0.2,0,0.3,0,0.5,0h0.7c0.9,0.1,1.7-0.5,1.9-1.3c0-0.2,0-0.3,0-0.5V463h2.8L121.7,483.1z"/>
<path class="st1" d="M127.4,487.4v-21.1H124v-3.4h10.5v3.4h-3.4v21.1H127.4z"/>
<path class="st1" d="M141.6,487.4H136v-6.9h5.6V487.4z"/>
</svg>
